<svg xmlns="http://www.w3.org/2000/svg" xmlns:xlink="http://www.w3.org/1999/xlink" version="1.1" x="0px" y="0px" viewBox="0 -10 100 125" enable-background="new 0 0 100 100" xml:space="preserve"><path d="M29.811,92.749c-1.594,0.046-0.226-1.024,2.906-1.709c7.909-2.038,8.694-7.711,5.158-10.59  c-3.995-3.032-10.123,1.87-12.231,2.927c-2.142,1.24-7.875,3.206-12.225-5.587c-3.825-8.73,4.908-16.619,8.223-19  c3.252-2.335,6.289-7.786,7.023-9.485c-5.27-6.636-5.177-10.283-5.591-12.001c-0.195-0.33-0.404-0.621-0.651-0.817  c-0.004-0.019-0.006-0.035-0.01-0.052l-1.495-1.349c0,0-1.634-1.32-1.394-1.805c0.224-0.451,2.593,0.906,2.593,0.906  s-1.672-2.34-1.276-2.678c0.412-0.353,1.907,1.03,1.907,1.03l0.623,0.811l-0.185-1.182c0,0-0.333-2.009,0.189-2.161  c0.521-0.149,1.011,1.608,1.011,1.608l0.44,1.497l0.607-1.317c0,0,0.507-2.015,1.034-1.885c0.526,0.129,0.274,2.151,0.274,2.151  l-0.113,1.894l0.94-0.503c0,0,1.781-1.406,2.209-1.075c0.429,0.331-1.306,2.215-1.306,2.215l-0.897,1.241  c-0.192,0.442-0.261,1.415-0.22,1.855c0.972,2.948,3.46,7.552,4.247,6.261c1.793-4.625,10.962-11.552,13.308-12.41  c1.971-1.031,11.127-4.222,12.083-6.457c-0.453-0.948-3.296-2.459-5.843-4.119c-0.001-1.46,0.493-3.568,1.009-5.133  c0.199-0.463,0.001-2,0.001-2s-1.987-2.675-1.645-3c0.31-0.254,2.582,0.723,2.582,0.723s1.134-4.89,1.573-4.837  c0.7,0.102,1.146,4.195,1.146,4.195s2.364-3.426,3.029-3.273c0.483,0.327-1.422,4.989-1.422,4.989s2.989-0.129,3.176,0.43  c0.155,0.513-2.844,1.929-2.844,1.929l-0.952,0.385l-0.658,0.695c-0.565,1.386-0.604,1.885-0.611,3.668  c1.866,1.149,3.627,1.479,5.491,1.765c1.278-0.395,1.266-0.66,4.622-7.046s5.616-6.174,11.407-7.32  c5.736-1.135,7.829-0.486,9.374,1.063c0.03-0.025,0.047-0.039,0.047-0.039c1.348,1.757,1.725,3.908-0.219,9.482  c-1.945,5.572-2.051,7.841-8.843,10.273c-6.793,2.431-7.054,2.38-7.624,3.59c0.024,1.886,0.104,3.676,0.982,5.684  c1.767,0.243,2.265,0.273,3.717-0.09l0.782-0.556l0.513-0.89c0,0,1.819-2.772,2.307-2.545c0.528,0.262-0.018,3.206-0.018,3.206  s4.881-1.237,5.141-0.715c0.057,0.682-3.664,2.544-3.664,2.544s3.985,1.014,3.988,1.719c-0.006,0.443-5.006,0.884-5.006,0.884  s0.649,2.386,0.355,2.657c-0.372,0.294-2.742-2.047-2.742-2.047s-1.494-0.412-1.979-0.279c-1.624,0.292-3.779,0.489-5.226,0.281  c-1.287-2.753-2.385-5.776-3.263-6.358c-2.346,0.634-6.785,9.253-8.081,11.062c-1.178,2.204-9.316,10.315-14.147,11.443  c-1.388,0.598,2.822,3.705,5.605,5.08c0.432,0.101,1.404,0.167,1.87,0.041l1.353-0.713c0,0,2.108-1.458,2.377-0.986  c0.267,0.472-1.373,2.036-1.373,2.036l-0.629,0.863l1.89,0.152c0,0,2.036,0.033,2.091,0.572c0.056,0.537-2.01,0.761-2.01,0.761  l-1.389,0.416l1.418,0.646c0,0,1.674,0.729,1.452,1.226c-0.222,0.495-2.164-0.114-2.164-0.114l-1.146-0.349l0.718,0.729  c0,0,1.159,1.675,0.753,2.034c-0.39,0.342-2.474-1.639-2.474-1.639s1.013,2.534,0.534,2.694c-0.515,0.169-1.592-1.631-1.592-1.631  l-1.127-1.673c-0.017-0.005-0.032-0.009-0.049-0.013c-0.161-0.274-0.42-0.521-0.719-0.762c-1.649-0.65-5.282-1.069-11.136-7.248  c-0.894,0.407-1.547,0.681-2.11,0.765c-4.232,1.576-11.937,3.868-15.031,7.761c-3.249,3.74-3.503,8.313-1.125,10.428  c3.486,4.012,8.591-2.904,14.78-3.695c3.585-0.161,6.504,1.608,8.07,5.63c0.782,2.169,0.741,4.108-0.176,5.815  C39.286,91.931,31.511,92.826,29.811,92.749z"/></svg>
