<svg xmlns="http://www.w3.org/2000/svg" version="1.1" viewBox="-5.0 -15.0 110.0 135.0">
 <path d="m72.688 49.867c-0.30078-0.12109-0.60156-0.23047-0.91016-0.33594l-10.262-3.4766 0.046875-0.85547 12.18-2.6875c0.32422-0.070313 0.64062-0.15234 0.95312-0.25 3.1289-1.0078 5.7109-3.2539 7.1406-6.2148 1.4336-2.9609 1.5859-6.3789 0.42969-9.457l-1.6055-4.4453c-0.09375-0.25391-0.35156-0.41016-0.62109-0.375-0.26953 0.039063-0.47656 0.25781-0.49609 0.53125l-0.58984 8.1055h0.003906c-0.17578 3.5977-2.7344 6.6328-6.25 7.4141l-11.492 2.5352c-0.12891-0.53516-0.28516-1.0586-0.46875-1.5781l1.707-1.5742c0.32812-0.30469 0.64844-0.61719 0.96094-0.9375 2.8984-3.0703 4.8164-6.9414 5.5039-11.113 0.69141-4.168 0.11719-8.4492-1.6406-12.293l-0.75781-1.6992 0.003907 0.003906c-0.11328-0.25-0.38281-0.38672-0.64844-0.32812-0.26562 0.054687-0.45703 0.28906-0.45703 0.5625v8.0703-0.003906c0 5.3984-2.2539 10.551-6.2227 14.207l-0.91406 0.84375v0.003906c-0.60156-0.70703-1.2812-1.3398-2.0234-1.8906 0.074219-0.54688 0.11328-1.0977 0.11328-1.6484 0.042968-2.3164-0.65625-4.5859-1.9922-6.4727 0.007813 0.14453 0.015625 0.28906 0.015625 0.4375v-0.003906c0.12109 2.2344-0.89062 4.3789-2.6914 5.7031-1.1836-0.23047-2.3984-0.23047-3.582 0-1.8047-1.3242-2.8164-3.4688-2.6914-5.7031 0-0.14844 0.007812-0.29297 0.015624-0.4375v0.003906c-1.3398 1.8867-2.0391 4.1562-1.9922 6.4727 0 0.55078 0.039063 1.1016 0.11328 1.6484-0.71094 0.52344-1.3594 1.125-1.9414 1.7891l-0.80859-0.74609c-3.9688-3.6562-6.2227-8.8086-6.2227-14.207v-8.0664c0-0.27344-0.19141-0.50781-0.45703-0.5625-0.26562-0.058594-0.53516 0.078124-0.64453 0.32812l-0.75781 1.6992v-0.003906c-1.7578 3.8477-2.3281 8.1289-1.6406 12.301 0.69141 4.1719 2.6133 8.043 5.5156 11.117 0.30859 0.31641 0.625 0.625 0.95312 0.92578l1.5625 1.4453c-0.19922 0.54687-0.37109 1.1016-0.50781 1.668l-11.312-2.4961c-3.5352-0.79297-6.0977-3.8594-6.25-7.4766l-0.58594-8.0586c-0.019531-0.26953-0.22656-0.49219-0.49609-0.52734-0.26953-0.039062-0.52734 0.11719-0.62109 0.37109l-1.6094 4.418h0.003906c-1.1719 3.0898-1.0195 6.5273 0.41797 9.5039 1.4414 2.9766 4.043 5.2266 7.1953 6.2227 0.29688 0.089843 0.60156 0.16797 0.91016 0.23437l11.945 2.6367c0.023437 0.32812 0.058594 0.64844 0.10156 0.96875l-10.078 3.4141c-0.30859 0.10547-0.61719 0.21875-0.91797 0.33984-8.9102 3.5703-12.418 14.383-7.7617 22.777l0.011718 0.023438v0.003906c0.125 0.22656 0.38672 0.33984 0.64063 0.28125 0.25-0.0625 0.42969-0.28516 0.4375-0.54688l0.16406-6.0469c0.10547-5.5703 3.6914-10.48 8.9648-12.277l9.9297-3.3633 0.003907-0.003906c0.27734 0.57422 0.59766 1.1289 0.95312 1.6602l-3.7188 3.2109c-0.32031 0.27344-0.62891 0.55859-0.92578 0.85156h-0.003906c-4.8633 4.875-6.9062 11.895-5.4219 18.617l2.8594 13.664v0.003906c0.0625 0.28906 0.32812 0.48438 0.625 0.45312 0.29297-0.03125 0.51562-0.27734 0.51562-0.57422v-17.391c0-4.6055 2.0039-8.9805 5.4883-11.988l3.332-2.875c0.24219 1.1367-0.070312 2.3203-0.84766 3.1875-2.9609 3.6016-4.5273 8.1523-4.4062 12.812 0 9.0703 5.2617 11.75 11.75 11.75 6.4883 0 11.75-2.6797 11.75-11.75 0.12109-4.6602-1.4414-9.2109-4.4023-12.812-0.8125-0.90234-1.1211-2.1523-0.82422-3.3281l3.4961 3.0156c3.4844 3.0078 5.4922 7.3828 5.4922 11.988v17.391c0 0.29688 0.22266 0.54297 0.51562 0.57422s0.5625-0.16797 0.62109-0.45703l2.8633-13.672c1.5-6.8125-0.62109-13.918-5.6133-18.793-0.24219-0.23047-0.48828-0.45312-0.73828-0.67188l-3.8359-3.3125-0.003906 0.003907c0.33984-0.51563 0.64453-1.0547 0.91016-1.6133l10.094 3.4219c5.2852 1.8008 8.8711 6.7227 8.9648 12.301l0.16406 6.0273 0.003907 0.003906c0.003906 0.25781 0.18359 0.48047 0.4375 0.54297 0.25 0.0625 0.51562-0.054687 0.64062-0.28125 4.6719-8.3984 1.168-19.234-7.7578-22.809z"/>
</svg>
