<svg xmlns="http://www.w3.org/2000/svg" version="1.1" viewBox="-10.0 -20.0 110.0 135.0">
 <path d="m79.176 4.6094c4.2656 15.809 7.0938 30.555 7.0859 43.145-0.007813 12.82-2.9531 23.438-10.285 30.719-0.62891 0.62891-1.2734 1.2227-1.918 1.7891-6.4336 5.6094-13.125 7.6445-19.457 7.0352-5.6719-0.54297-11.012-3.2148-15.586-7.3281-3.0977 4.793-6.1094 8.5469-9.0234 11.25-3.3711 3.1172-6.6484 4.875-9.8359 5.2695-0.56641 0.0625-1.1445-0.19531-1.457-0.71484l-2.918-4.8047c-0.38281-0.73047-0.10547-1.6367 0.62891-2.0234 2.6562-1.4023 5.2891-3.3203 7.9062-5.7539l0.082032-0.082031c2.2539-2.1055 4.4922-4.5938 6.7188-7.4648-5.3984-1.9453-9.9883-5.1133-13.102-9.4727-3.6914-5.1797-5.2773-11.988-3.6406-20.367 0.16016-0.8125 0.35547-1.668 0.58984-2.5547 2.6445-9.9922 10.359-17.852 21.461-24.266 10.895-6.2969 25.082-11.223 40.918-15.434 0.79688-0.21094 1.6133 0.26562 1.8281 1.0625zm-14.59 20.164-4.3398-7.5195c-0.41016-0.71484-0.16406-1.6289 0.55078-2.0391s1.6289-0.16406 2.0391 0.55078l3.4766 6.0195 5.3203-9.2148c0.41016-0.71484 1.3242-0.96094 2.0391-0.55078 0.71484 0.41016 0.96094 1.3242 0.55078 2.0391l-5.3203 9.2148h6.9492c0.82813 0 1.5 0.67187 1.5 1.5 0 0.82812-0.67187 1.5-1.5 1.5h-8.6836l-6.4219 11.125h16.078c0.82422 0 1.4922 0.66797 1.4922 1.4922s-0.66797 1.4922-1.4922 1.4922h-17.801l-6.9805 12.094h23.605c0.82422 0 1.4922 0.66797 1.4922 1.4922s-0.66797 1.4922-1.4922 1.4922h-25.328l-5.1367 8.8984h18.059c0.82812 0 1.5 0.67188 1.5 1.5s-0.67188 1.5-1.5 1.5h-19.793l-4.6953 8.1328c0.30078 0.32812 0.60156 0.64062 0.89453 0.9375l0.070312 0.070312c0.042969 0.039062 0.085938 0.078125 0.12109 0.12109l0.019531 0.019531c4.3672 4.3242 9.5547 7.1523 15.031 7.6758 5.543 0.53125 11.449-1.293 17.207-6.3125 0.58594-0.51172 1.1836-1.0664 1.7773-1.6562 6.7031-6.6602 9.3984-16.555 9.4062-28.598 0.007812-11.895-2.6133-25.879-6.6016-40.926-15.02 4.0664-28.434 8.7891-38.738 14.746-10.43 6.0273-17.648 13.309-20.062 22.441-0.20703 0.78125-0.39062 1.5703-0.54297 2.3672-1.4688 7.5-0.09375 13.531 3.1367 18.059 3.0781 4.3164 7.8633 7.3242 13.504 8.9922l0.035157 0.007812 0.035156 0.011719 0.027344 0.007812c0.27734 0.085938 0.5625 0.16016 0.84375 0.23438 0.40625 0.10938 0.82812 0.21094 1.2617 0.30859l4.6992-8.1367-9.8945-17.137c-0.41406-0.71484-0.17188-1.6328 0.54297-2.043 0.71484-0.41406 1.6328-0.17188 2.043 0.54297l9.0312 15.641 5.1367-8.8984-12.664-21.934c-0.41406-0.71484-0.17188-1.6328 0.54297-2.043 0.71484-0.41406 1.6328-0.17188 2.043 0.54297l11.801 20.441 6.9805-12.09-8.9023-15.414c-0.41406-0.71484-0.17187-1.6328 0.54297-2.043 0.71484-0.41406 1.6328-0.17188 2.043 0.54297l8.0391 13.922 6.4258-11.129zm-27.758 53.055c-0.23828-0.25391-0.47656-0.51172-0.70703-0.76953-0.64844-0.13672-1.3008-0.28906-1.957-0.46484-2.5508 3.3711-5.1289 6.2773-7.7266 8.7109l-0.085938 0.070312c-2.3672 2.2031-4.7539 4.0195-7.1602 5.4453l1.5312 2.5273c2.2852-0.52734 4.6992-1.9688 7.2344-4.3164 2.832-2.6289 5.7891-6.3594 8.8711-11.199z"/>
</svg>
