<svg xmlns="http://www.w3.org/2000/svg" xmlns:xlink="http://www.w3.org/1999/xlink" version="1.1" x="0px" y="0x" viewBox="0 -15 100 125" enable-background="new 0 0 100 100" xml:space="preserve"><g><path fill="#000000" d="M94.694,16.707c-0.058-0.247-0.208-0.455-0.422-0.589c-0.398-0.247-0.853-0.152-1.281,0.274   c-0.188,0.188-4.702,4.61-12.669,4.61c-0.708,0-1.432-0.036-2.148-0.106l-7.998-0.871c0.642,1.614,0.915,3.743,0.198,6.3   l8.666,0.944c0.437,0.044,0.879,0.065,1.317,0.065c0.214,0,0.428-0.006,0.642-0.016c3.389-0.163,6.764-3.017,9.476-5.31   c2.609-2.206,4.041-4.493,4.101-4.589C94.709,17.207,94.751,16.953,94.694,16.707z"/><path fill="#000000" d="M29.823,20.024l-7.996,0.872c-0.719,0.07-1.442,0.106-2.15,0.106c-7.967,0-12.48-4.422-12.669-4.61   c-0.429-0.427-0.883-0.521-1.28-0.274c-0.215,0.134-0.365,0.342-0.422,0.589c-0.058,0.246-0.016,0.5,0.118,0.714   c0.06,0.096,1.491,2.383,4.101,4.589c2.712,2.293,6.088,5.146,9.476,5.31c0.214,0.01,0.429,0.016,0.643,0.016   c0.438,0,0.88-0.021,1.318-0.065l8.664-0.944C28.909,23.768,29.182,21.639,29.823,20.024z"/><path fill="#000000" d="M62.739,31.148l-0.196,2.523c0,0.327-0.266,0.593-0.592,0.593c-0.327,0-0.592-0.266-0.592-0.593   l-0.196-3.556l6.71-2.877c0.417-0.182,0.735-0.535,0.872-0.968c1.677-5.289-1.543-7.913-1.681-8.021   c-0.229-0.182-0.505-0.296-0.796-0.33l-8.096-0.946c-0.159-0.018-0.32-0.014-0.479,0.018l-2.684,0.512L50,18.459l-5.012-0.956   l-2.684-0.512c-0.158-0.031-0.319-0.036-0.479-0.018c-2.023,0.233-8.096,0.946-8.096,0.946c-0.29,0.034-0.566,0.148-0.796,0.33   c-0.137,0.108-3.356,2.732-1.68,8.021c0.137,0.433,0.454,0.786,0.871,0.968l6.71,2.877l-0.196,3.556   c0,0.327-0.265,0.593-0.591,0.593c-0.327,0-0.593-0.266-0.593-0.593l-0.196-2.523l-1.384-0.604l-0.011,0.051l-1.682,7.385   c-0.744,0.412-1.219,1.201-1.219,2.068v8.402c0,2.174,1.769,3.943,3.942,3.943v3.26c0,0.27,0.069,0.537,0.203,0.772l3.837,6.818   l0.693-4.384c0.037-0.325,0.328-0.562,0.655-0.521c0.324,0.037,0.556,0.331,0.52,0.655l-0.701,7.904v12.619   c0,0.245,0.057,0.487,0.167,0.706c0.073,0.147,1.798,3.478,6.93,3.791V80.57c0-0.437,0.353-0.789,0.789-0.789   c0.435,0,0.788,0.353,0.788,0.789v3.445c5.132-0.313,6.856-3.644,6.93-3.791c0.11-0.219,0.167-0.461,0.167-0.706V66.899l-0.7-7.904   c-0.038-0.324,0.194-0.618,0.52-0.655c0.326-0.041,0.617,0.195,0.654,0.521l0.693,4.384l3.838-6.818   c0.133-0.235,0.202-0.503,0.202-0.772v-3.26c2.175,0,3.942-1.77,3.942-3.943v-8.402c0-0.867-0.475-1.656-1.219-2.068l-1.68-7.385   l-0.013-0.051L62.739,31.148z M65.121,40.408l-0.452,0.532v7.51c0,0.871-0.706,1.578-1.577,1.578s-1.577-0.707-1.577-1.578v-3.791   l-1.703,1.712c-0.117,0.138-0.285,0.208-0.452,0.208c-0.135,0-0.271-0.046-0.382-0.14c-0.249-0.211-0.28-0.585-0.069-0.834   l5.009-6.217c0.283-0.332,0.78-0.374,1.112-0.092C65.361,39.578,65.401,40.076,65.121,40.408z M40.64,46.579   c-0.168,0-0.335-0.07-0.451-0.208l-1.704-1.712v3.791c0,0.871-0.706,1.578-1.577,1.578c-0.87,0-1.577-0.707-1.577-1.578v-7.51   l-0.451-0.532c-0.281-0.332-0.24-0.83,0.092-1.111s0.829-0.24,1.111,0.092l5.008,6.217c0.212,0.249,0.181,0.623-0.068,0.834   C40.91,46.533,40.774,46.579,40.64,46.579z M47.843,78.299c-0.061,0.15-0.207,0.248-0.366,0.248c-0.012,0-0.024-0.001-0.036-0.002   c-0.174-0.016-0.316-0.145-0.351-0.315l-2.207-4.731c-0.01-0.04-0.01-0.082-0.006-0.122l1.051-9.146   c0.023-0.199,0.191-0.35,0.392-0.35h0.001c0.199,0,0.367,0.149,0.391,0.347l0.744,6.135l1.783-1.782   c-0.018-0.065,0.17-40.991,0.17-40.991c0-0.326,0.265-0.591,0.592-0.591c0.326,0,0.591,0.265,0.591,0.591   c0,0,0.188,40.926,0.171,40.991l1.782,1.782l0.743-6.135c0.024-0.197,0.192-0.347,0.393-0.347h0.001c0.2,0,0.367,0.15,0.391,0.35   l1.051,9.146c0.005,0.04,0.004,0.082-0.005,0.122l-2.207,4.731c-0.035,0.174-0.181,0.302-0.358,0.315   c-0.179,0.015-0.339-0.092-0.399-0.259l-1.364-3.406v-0.934c0-0.436-0.354-0.789-0.788-0.789c-0.437,0-0.789,0.354-0.789,0.789   v0.934L47.843,78.299z"/></g></svg>
