<svg xmlns="http://www.w3.org/2000/svg" data-name="Layer 1" viewBox="0 -10 100 125" x="0px" y="0px"><title>144all</title><path d="M90.1,74.88a17.31,17.31,0,0,1-3.29-3.19C84.49,69,81.86,66,76.6,66s-7.89,3-10.21,5.69C64.29,74.1,62.63,76,59.2,76S54.1,74.1,52,71.69C49.68,69,47.05,66,41.79,66s-7.89,3-10.21,5.69C29.49,74.1,27.83,76,24.39,76s-5.09-1.9-7.19-4.31a17.14,17.14,0,0,0-5.33-4.61,2,2,0,0,0-1.76,3.59,13.91,13.91,0,0,1,4.07,3.64C16.51,77,19.14,80,24.39,80s7.89-3,10.21-5.69C36.7,71.9,38.36,70,41.79,70s5.09,1.9,7.19,4.31C51.3,77,53.93,80,59.2,80s7.89-3,10.21-5.69C71.5,71.9,73.16,70,76.6,70s5.1,1.9,7.19,4.31a20.53,20.53,0,0,0,4.11,3.91,2,2,0,1,0,2.2-3.34Z"/><path d="M90.1,59.88a17.34,17.34,0,0,1-3.29-3.19C84.49,54,81.86,51,76.6,51s-7.89,3-10.21,5.69C64.29,59.1,62.63,61,59.19,61S54.1,59.1,52,56.69C49.68,54,47.05,51,41.79,51s-7.89,3-10.21,5.69C29.49,59.1,27.83,61,24.39,61s-5.09-1.9-7.19-4.31a17.14,17.14,0,0,0-5.33-4.61,2,2,0,0,0-1.76,3.59,13.91,13.91,0,0,1,4.07,3.64C16.51,62,19.14,65,24.39,65s7.89-3,10.21-5.69C36.7,56.9,38.35,55,41.79,55s5.1,1.9,7.19,4.31C51.3,62,53.93,65,59.19,65s7.89-3,10.21-5.69C71.5,56.9,73.16,55,76.6,55s5.1,1.9,7.19,4.31a20.52,20.52,0,0,0,4.11,3.91,2,2,0,1,0,2.2-3.34Z"/><path d="M90.1,43.88a17.31,17.31,0,0,1-3.29-3.19C84.49,38,81.86,35,76.6,35s-7.89,3-10.21,5.69C64.29,43.1,62.63,45,59.2,45S54.1,43.1,52,40.69C49.68,38,47.05,35,41.79,35s-7.89,3-10.21,5.69C29.49,43.1,27.83,45,24.39,45s-5.09-1.9-7.19-4.31a17.14,17.14,0,0,0-5.33-4.61,2,2,0,0,0-1.76,3.59,13.91,13.91,0,0,1,4.07,3.64C16.51,46,19.14,49,24.39,49s7.89-3,10.21-5.69C36.7,40.9,38.36,39,41.79,39s5.09,1.9,7.19,4.31C51.3,46,53.93,49,59.2,49s7.89-3,10.21-5.69C71.5,40.9,73.16,39,76.6,39s5.1,1.9,7.19,4.31a20.53,20.53,0,0,0,4.11,3.91,2,2,0,1,0,2.2-3.34Z"/><path d="M90.1,28.88a17.34,17.34,0,0,1-3.29-3.19C84.49,23,81.86,20,76.6,20s-7.89,3-10.21,5.69C64.29,28.1,62.63,30,59.19,30S54.1,28.1,52,25.69C49.68,23,47.05,20,41.79,20s-7.89,3-10.21,5.69C29.49,28.1,27.83,30,24.39,30s-5.09-1.9-7.19-4.31a17.14,17.14,0,0,0-5.33-4.61,2,2,0,0,0-1.76,3.59,13.91,13.91,0,0,1,4.07,3.64C16.51,31,19.14,34,24.39,34s7.89-3,10.21-5.69C36.7,25.9,38.35,24,41.79,24s5.1,1.9,7.19,4.31C51.3,31,53.93,34,59.19,34s7.89-3,10.21-5.69C71.5,25.9,73.16,24,76.6,24s5.1,1.9,7.19,4.31a20.52,20.52,0,0,0,4.11,3.91,2,2,0,1,0,2.2-3.34Z"/></svg>
