<svg xmlns:dc="http://purl.org/dc/elements/1.1/" xmlns:cc="http://creativecommons.org/ns#" xmlns:rdf="http://www.w3.org/1999/02/22-rdf-syntax-ns#" xmlns:svg="http://www.w3.org/2000/svg" xmlns="http://www.w3.org/2000/svg" xmlns:sodipodi="http://sodipodi.sourceforge.net/DTD/sodipodi-0.dtd" xmlns:inkscape="http://www.inkscape.org/namespaces/inkscape" viewBox="0 0 12.7 15.875" version="1.1" x="0px" y="0px"><g transform="translate(0,-284.29998)"><path style="" d="m 5.4491799,288.68209 a 3.5612946,3.5612946 0 0 0 1.0440252,-2.1939 0.48865065,0.48865065 0 0 0 -0.1559078,-0.40691 1.2165232,1.2165232 0 0 0 -1.0099204,-0.30576 1.7325584,1.7325584 0 0 0 -1.060829,2.72841 0.48865058,0.48865058 0 0 0 0.1057946,0.10527 1.0142884,1.0142884 0 0 0 1.0768374,0.0729 z" fill="#000000" stroke="none"/><path style="" d="m 6.2495992,289.46064 a 2.8319213,2.8319213 0 0 0 1.5640491,-2.20112 0.48865065,0.48865065 0 0 0 0,-0.10709 1.0063908,1.0063908 0 0 0 -1.1860126,-0.85838 0.63597417,0.63597417 0 0 1 0.014915,0.20829 3.7086181,3.7086181 0 0 1 -1.0851896,2.28229 0.51851037,0.51851037 0 0 0 0.6946247,0.67601 z" fill="#000000" stroke="none"/><path style="" d="m 9.1354837,288.85696 a 0.48865065,0.48865065 0 0 0 0.037784,-0.17349 1.2866925,1.2866925 0 0 0 -1.2243929,-1.32097 2.9807047,2.9807047 0 0 1 -1.6357389,2.23104 0.66583389,0.66583389 0 0 1 -0.017898,0.008 0.73126004,0.73126004 0 0 0 0.8158311,0.80783 2.5726728,2.5726728 0 0 0 2.0241163,-1.55245 z" fill="#000000" stroke="none"/><path style="" d="m 7.55125,291.25349 a 0.59156784,0.59156784 0 0 1 -0.373065,-0.70488 2.7199964,2.7199964 0 0 0 2.0930219,-1.63459 0.63597417,0.63597417 0 0 0 0.040767,-0.13826 1.4307802,1.4307802 0 0 1 1.0107151,1.43046 0.48865065,0.48865065 0 0 1 -0.217157,0.38508 4.0120373,4.0120373 0 0 1 -2.553884,0.66219 z" fill="#000000" stroke="none"/><path style="" d="m 5.7700436,296.1028 a 0.63597417,0.63597417 0 0 1 -0.1503396,-0.16596 2.6456769,2.6456769 0 0 1 -0.2944151,-2.14757 1.6396372,1.6396372 0 0 0 -1.0747494,0.13179 1.5245341,1.5245341 0 0 0 -0.747522,0.79113 1.1246248,1.1246248 0 0 0 0.1364193,1.10064 1.5588386,1.5588386 0 0 0 0.58187,0.47794 1.2741213,1.2741213 0 0 0 1.5487368,-0.18797 z" fill="#000000" stroke="none"/><path style="" d="m 7.2498747,292.91235 a 0.43976538,0.43976538 0 0 1 0.3751531,-0.56729 0.63597417,0.63597417 0 0 0 0.049716,0.029 3.7225755,3.7225755 0 0 0 2.7452892,0.28969 1.1625527,1.1625527 0 0 1 -0.8506321,1.85764 2.4139949,2.4139949 0 0 1 -2.3192274,-1.60908 z" fill="#000000" stroke="none"/><path style="" d="m 7.7426546,292.24378 a 0.48865065,0.48865065 0 0 1 -0.208805,-0.21402 0.56861791,0.56861791 0 0 1 0.076562,-0.62421 4.1593608,4.1593608 0 0 0 2.5768524,-0.69173 0.63597417,0.63597417 0 0 0 0.151732,-0.14183 1.3789427,1.3789427 0 0 1 0.06861,1.9422 3.575252,3.575252 0 0 1 -2.6645504,-0.27041 z" fill="#000000" stroke="none"/><path style="" d="m 5.4644923,293.83671 a 2.4983534,2.4983534 0 0 0 0.2797987,2.02207 0.48865065,0.48865065 0 0 0 0.2971992,0.21535 1.4219034,1.4219034 0 0 0 1.4192776,-0.45198 3.3914957,3.3914957 0 0 1 -1.0914537,-2.16515 0.8466537,0.8466537 0 0 0 -0.9048218,0.37971 z" fill="#000000" stroke="none"/><path style="" d="m 6.5126935,293.41056 a 3.2441721,3.2441721 0 0 0 1.0928458,2.14325 1.2746326,1.2746326 0 0 0 1.8821289,-0.88495 2.5613184,2.5613184 0 0 1 -2.344284,-1.62193 0.62151652,0.62151652 0 0 0 -0.6306907,0.36363 z" fill="#000000" stroke="none"/><path style="" d="m 3.7438393,285.64119 a 1.4749931,1.4749931 0 0 0 -0.813743,1.10336 0.7364127,0.7364127 0 0 0 0.8562,0.86624 1.879882,1.879882 0 0 1 1.3364517,-1.93624 1.5685884,1.5685884 0 0 0 -1.3789087,-0.0334 z" fill="#000000" stroke="none"/><path style="" d="m 6.6652206,291.60266 a 0.07366179,0.07366179 0 1 1 -0.1455669,-0.0195 0.42068095,0.42068095 0 0 1 0.2694579,-0.33854 0.66128465,0.66128465 0 0 0 0.2825828,-0.25793 l 0.080539,0.14346 a 0.80860817,0.80860817 0 0 1 -0.3062474,0.25059 0.27335735,0.27335735 0 0 0 -0.1809643,0.22187 z" fill="#000000" stroke="none"/><path style="" d="m 6.03453,290.78456 a 0.77933732,0.77933732 0 0 0 0.4377946,-0.41535 l -0.1148428,-0.11066 a 0.6320138,0.6320138 0 0 1 -0.3779371,0.38929 0.36195549,0.36195549 0 0 0 -0.206021,0.43543 0.07366179,0.07366179 0 1 0 0.1412914,-0.0416 0.21463196,0.21463196 0 0 1 0.1197149,-0.25718 z" fill="#000000" stroke="none"/><path style="" d="m 5.0176495,289.74107 a 0.62732653,0.62732653 0 0 0 0.4106499,-0.46719 l 0.1057945,0.15967 a 0.77465005,0.77465005 0 0 1 -0.455891,0.44239 0.39183142,0.39183142 0 0 0 -0.1970722,0.37062 0.07366179,0.07366179 0 0 1 -0.1468595,0.0113 0.53915495,0.53915495 0 0 1 0.2833783,-0.51683 z" fill="#000000" stroke="none"/><path style="" d="m 3.1173248,289.3542 a 0.07394834,0.07394834 0 1 1 -0.123195,-0.0818 0.70605251,0.70605251 0 0 1 0.5701372,-0.3139 0.79914134,0.79914134 0 0 0 0.5568134,-0.4043 l 0.1002264,0.12045 a 0.94646493,0.94646493 0 0 1 -0.6431195,0.43096 0.55872892,0.55872892 0 0 0 -0.4608625,0.24857 z" fill="#000000" stroke="none"/><path style="" d="m 1.92644,285.95513 a 0.07376851,0.07376851 0 1 1 0.1461636,-0.02 0.5741795,0.5741795 0 0 0 0.8025073,0.44629 l -0.056676,0.17505 a 0.72150303,0.72150303 0 0 1 -0.8922935,-0.60132 z" fill="#000000" stroke="none"/><path style="" d="m 2.9328803,284.97576 a 0.8634169,0.8634169 0 0 1 0.6905481,0.56166 l 0.1336352,-0.0623 a 1.0107405,1.0107405 0 0 0 -0.8033028,-0.64518 0.07367353,0.07367353 0 0 0 -0.020881,0.14586 z" fill="#000000" stroke="none"/></g><text x="0" y="27.7" fill="#000000" font-size="5px" font-weight="bold" font-family="'Helvetica Neue', Helvetica, Arial-Unicode, Arial, Sans-serif">Created by Phạm Thanh Lộc</text><text x="0" y="32.7" fill="#000000" font-size="5px" font-weight="bold" font-family="'Helvetica Neue', Helvetica, Arial-Unicode, Arial, Sans-serif">from the Noun Project</text></svg>