<svg xmlns="http://www.w3.org/2000/svg" version="1.1" viewBox="-5.0 -10.0 110.0 135.0">
 <path d="m82.031 37.188c0-5.5469-4.2188-10.312-10.234-11.641l-1.6406-0.70312c-1.5625-7.1875-7.9688-12.344-15.469-12.344h-0.625l0.625-6.0938v-0.15625c0-2.5781-2.1094-4.6875-4.6875-4.6875s-4.6875 2.1094-4.6875 4.6875v0.15625l0.625 6.0938h-0.625c-7.5 0-13.906 5.1562-15.391 12.344l-1.6406 0.70312c-2.8906 0.625-5.4688 2.1094-7.2656 4.1406-1.9531 2.1094-2.9688 4.7656-2.9688 7.5-0.078125 3.4375 1.4844 6.5625 4.2969 8.9062 0.39062 0.3125 0.70312 0.54688 1.1719 0.85938 0.23438 7.8125 1.7188 15.391 4.4531 22.578 5.7031 15.078 15.391 23.672 20.859 27.656 0.3125 0.39062 0.70312 0.625 1.25 0.625h0.078125c0.54688 0 1.0156-0.3125 1.3281-0.78125 5.5469-3.9844 15-12.578 20.703-27.5 2.7344-7.1094 4.2188-14.688 4.4531-22.578 3.2031-2.2656 5.3906-5.7812 5.3906-9.7656zm-32.031-32.5c0.85938 0 1.5625 0.70312 1.5625 1.4844l-0.625 6.3281h-1.875l-0.625-6.3281c0-0.85938 0.70312-1.4844 1.5625-1.4844zm-4.6875 10.938h9.375c5.3125 0 9.9219 3.2031 11.797 7.9688-5.2344-1.6406-10.859-2.5-16.484-2.5-5.5469 0-11.25 0.85938-16.484 2.5 1.875-4.7656 6.4062-7.9688 11.797-7.9688zm23.906 52.734c-5.2344 13.75-13.906 21.875-19.219 25.781-5.2344-3.9062-13.984-12.031-19.219-25.781-2.4219-6.3281-3.75-12.969-4.1406-19.922 2.4219 0.85938 5.1562 1.0156 7.7344 0.46875 0.078125 0 0.23438-0.078125 0.3125-0.078125 5.9375-2.5781 11.562-3.125 15.234-3.125 6.6406 0 11.953 1.7188 15.234 3.125 0.078125 0.078125 0.23438 0.078125 0.3125 0.078125 1.0156 0.23438 2.0312 0.3125 3.0469 0.3125 1.6406 0 3.2812-0.3125 4.7656-0.78125-0.3125 6.875-1.7188 13.594-4.0625 19.922zm-0.625-22.266c-0.78125 0-1.4844-0.078125-2.2656-0.23438-3.5938-1.5625-9.2969-3.3594-16.406-3.3594-5.625 0-11.328 1.1719-16.406 3.3594-3.3594 0.625-6.7969-0.15625-9.2969-2.2656-2.1094-1.7188-3.2031-3.9844-3.2031-6.4062 0-1.9531 0.78125-3.9062 2.1875-5.4688 1.4062-1.6406 3.5156-2.7344 5.7812-3.2031 0.078125 0 0.23438-0.078125 0.3125-0.078125 0.9375-0.39062 1.7969-0.70312 2.6562-1.0938 5.7031-2.0312 11.875-3.125 18.047-3.125 6.0938 0 12.344 1.0938 18.047 3.2031 0.9375 0.39062 1.7969 0.70312 2.6562 1.0938 0.078125 0.078125 0.23438 0.078125 0.3125 0.078125 4.6875 0.9375 7.8906 4.5312 7.8906 8.6719 0 4.8438-4.6094 8.8281-10.312 8.8281z"/>
<text x="0.0" y="117.5" font-size="5.0" font-weight="bold" font-family="Arbeit Regular, Helvetica, Arial-Unicode, Arial, Sans-serif" fill="#000000">Created by Sandiatresna</text><text x="0.0" y="122.5" font-size="5.0" font-weight="bold" font-family="Arbeit Regular, Helvetica, Arial-Unicode, Arial, Sans-serif" fill="#000000">from Noun Project</text></svg>