<svg xmlns="http://www.w3.org/2000/svg" version="1.1" viewBox="-5.0 -10.0 110.0 135.0">
 <path d="m60.828 19.66c1.0234 0.35547 2.0234 0.76562 3 1.2305 0.82031 0.39844 1.7539 0.48438 2.6328 0.23828l14.871-4h-0.003906c0.44531-0.11719 0.91797 0.007813 1.2422 0.33203 0.32422 0.32422 0.44922 0.79687 0.32813 1.2383l-4 14.871c-0.24219 0.875-0.15625 1.8125 0.24219 2.6289 0.46094 0.97656 0.87109 1.9805 1.2305 3 0.30078 0.85156 0.90234 1.5625 1.6875 2l13.328 7.6914h0.003906c0.39844 0.22656 0.64062 0.65234 0.64062 1.1094s-0.24219 0.88281-0.64062 1.1094l-13.391 7.6914c-0.78516 0.4375-1.3867 1.1484-1.6914 2-0.35547 1.0195-0.76562 2.0234-1.2305 3-0.39453 0.81641-0.48047 1.7539-0.23828 2.6289l4 14.871c0.12109 0.44141-0.007813 0.91406-0.33203 1.2383-0.32422 0.32422-0.79687 0.44922-1.2383 0.33203l-14.871-4c-0.875-0.24219-1.8086-0.16016-2.6289 0.23828-0.97656 0.46484-1.9805 0.875-3 1.2305-0.84766 0.30078-1.5586 0.90234-2 1.6914l-7.6602 13.328c-0.22656 0.39844-0.65234 0.64453-1.1094 0.64453s-0.88281-0.24609-1.1094-0.64453l-7.6914-13.359c-0.4375-0.78516-1.1484-1.3867-2-1.6914-1.0195-0.35547-2.0234-0.76562-3-1.2305-0.81641-0.39453-1.7539-0.48047-2.6289-0.23828l-14.871 4c-0.44141 0.12109-0.91406-0.007813-1.2383-0.33203-0.32422-0.32422-0.44922-0.79687-0.33203-1.2383l4-14.871c0.24219-0.875 0.16016-1.8086-0.23828-2.6289-0.46484-0.97656-0.875-1.9805-1.2305-3-0.30078-0.84766-0.90234-1.5586-1.6914-2l-13.328-7.6602c-0.39844-0.22656-0.64453-0.65234-0.64453-1.1094s0.24609-0.88281 0.64453-1.1094l13.359-7.6914c0.78906-0.4375 1.3906-1.1484 1.6914-2 0.35547-1.0195 0.76562-2.0234 1.2305-3 0.39453-0.81641 0.48047-1.7539 0.23828-2.6289l-4-14.871c-0.12109-0.44141 0.007813-0.91406 0.33203-1.2383 0.32422-0.32422 0.79687-0.44922 1.2383-0.33203l14.871 4c0.875 0.24219 1.8086 0.16016 2.6289-0.23828 0.97656-0.46484 1.9805-0.875 3-1.2305 0.85156-0.30078 1.5625-0.90234 2-1.6914l7.6602-13.328c0.22656-0.39844 0.65234-0.64453 1.1094-0.64453s0.88281 0.24609 1.1094 0.64453l7.6914 13.359c0.4375 0.78516 1.1484 1.3867 2 1.6914zm-10.828 3.5312c-8.3281 0.027344-16.172 3.9258-21.223 10.551-5.0508 6.625-6.7344 15.219-4.5547 23.258 2.1797 8.043 7.9727 14.609 15.676 17.777 7.707 3.168 16.445 2.5703 23.648-1.6133 7.2031-4.1797 12.051-11.477 13.121-19.738 1.0664-8.2578-1.7656-16.547-7.668-22.426-5.0352-5.043-11.875-7.8711-19-7.8516zm17.328 9.4805c-5.3867-5.3867-12.969-7.9609-20.52-6.9648-7.5508 0.99609-14.211 5.4492-18.02 12.043-3.8047 6.5977-4.3281 14.59-1.4141 21.625 2.9141 7.0391 8.9375 12.316 16.293 14.289 7.3594 1.9688 15.215 0.40625 21.258-4.2266 6.043-4.6367 9.582-11.82 9.5859-19.438 0.011719-6.5039-2.5742-12.742-7.1836-17.328z" fill-rule="evenodd"/>
<text x="0.0" y="117.5" font-size="5.0" font-weight="bold" font-family="Arbeit Regular, Helvetica, Arial-Unicode, Arial, Sans-serif" fill="#000000">Created by Faizal khusein</text><text x="0.0" y="122.5" font-size="5.0" font-weight="bold" font-family="Arbeit Regular, Helvetica, Arial-Unicode, Arial, Sans-serif" fill="#000000">from Noun Project</text></svg>