<svg xmlns="http://www.w3.org/2000/svg" version="1.1" viewBox="-5.0 -10.0 110.0 135.0">
 <path d="m41.066 50.941c-0.48828 0-0.91406-0.36719-0.95703-0.875-0.50781-4.9453-1.0781-10.051-1.6289-14.973l-0.019531-0.12109c-0.14063-1.3008-0.34766-2.6445-0.50781-3.9258-0.10156-0.67188-0.18359-1.3242-0.28516-1.9922-0.18359-1.4453 0.52734-2.1562 1.1602-2.5234 0.019531-0.019531 0.039063-0.019531 0.0625-0.019531 0.9375-0.44922 1.9141-0.28516 2.7461 0.48828l0.0625 0.0625c0.30469 0.28516 0.58984 0.55078 0.89453 0.89453 1.707 1.8516 3.0938 4.0898 4.4766 7.2852 1.5469 3.5195 2.8086 7.2227 3.9688 11.656 0.14063 0.50781-0.18359 1.0391-0.69141 1.1797-0.50781 0.14062-1.0391-0.18359-1.1797-0.69141-1.1406-4.3125-2.3594-7.9336-3.8672-11.371-1.3008-2.9688-2.5625-5.0469-4.1094-6.7344-0.26562-0.28516-0.50781-0.50781-0.8125-0.79297l-0.0625-0.0625c-0.30469-0.26562-0.44922-0.22266-0.57031-0.18359-0.12109 0.0625-0.22266 0.16406-0.16406 0.57031 0.082031 0.65234 0.18359 1.3008 0.26562 1.9727 0.18359 1.3008 0.36719 2.6445 0.52734 3.9883l0.019531 0.12109c0.55078 4.9219 1.1172 10.031 1.6289 14.996 0.0625 0.52734-0.32422 0.99609-0.85547 1.0586h-0.10156z" fill-rule="evenodd"/>
 <path d="m26.883 63.066c-0.30469 0-0.60937-0.14062-0.79297-0.42578-0.40625-0.58984-0.8125-1.1992-1.2227-1.7891-0.40625-0.58984-0.8125-1.1992-1.2227-1.8125-0.14062-0.20312-0.36719-0.50781-0.65234-0.875-2.2578-2.9922-4.0273-5.5938-2.9492-7.0586 0.83594-1.1406 2.5625-0.71094 3.9883-0.20312 2.9297 0.99609 5.332 2.7266 7.3047 4.293 0.42578 0.32422 0.48828 0.9375 0.16406 1.3633-0.32422 0.42578-0.9375 0.48828-1.3633 0.16406-1.8516-1.4648-4.0898-3.0703-6.7344-3.9883-0.99609-0.34766-1.5039-0.40625-1.75-0.40625 0.10156 0.69141 1.0781 2.2578 2.8906 4.6797 0.30469 0.40625 0.52734 0.71094 0.69141 0.95703 0.40625 0.60938 0.8125 1.1992 1.2227 1.7891 0.40625 0.58984 0.8125 1.1992 1.2227 1.7891 0.30469 0.44922 0.18359 1.0391-0.26563 1.3438-0.16406 0.12109-0.34766 0.18359-0.52734 0.18359z" fill-rule="evenodd"/>
 <path d="m66.23 55.762c-0.12109 0-0.22266-0.019531-0.34766-0.0625-0.50781-0.18359-0.75391-0.73438-0.57031-1.2422 0.34766-0.91406 0.65234-1.707 0.9375-2.625 1.0586-3.0703 1.5273-5.4727 1.5039-7.75 0-0.26562-0.019531-0.52734-0.039062-0.79297 0-0.14062-0.019532-0.28516-0.019532-0.42578-0.039062-0.40625-0.18359-0.46875-0.28516-0.50781-0.14062-0.039063-0.26562-0.039063-0.52734 0.32422-0.30469 0.44922-0.60937 0.89453-0.91406 1.3438-0.8125 1.1797-1.6484 2.4023-2.5234 3.6016-1.5039 2.0547-3.0312 4.1719-4.4961 6.207l-0.32422 0.46875c-0.30469 0.42578-0.91406 0.52734-1.3438 0.22266-0.42578-0.30469-0.52734-0.91406-0.22266-1.3438l0.32422-0.46875c1.4844-2.0547 3.0117-4.1719 4.5156-6.2266 0.85547-1.1602 1.6875-2.3789 2.4805-3.5391 0.30469-0.44922 0.60938-0.89453 0.9375-1.3633 0 0 0-0.019531 0.019532-0.019531 0.85547-1.1797 1.8711-1.2227 2.543-1.0586h0.039063c0.99609 0.26562 1.6289 1.0781 1.7305 2.2188v0.039063c0 0.14062 0.019531 0.28516 0.019531 0.40625 0.019531 0.30469 0.039062 0.58984 0.039062 0.91406 0.019531 2.5039-0.46875 5.0859-1.6055 8.3828-0.30469 0.9375-0.60937 1.75-0.95703 2.6875-0.16406 0.36719-0.52734 0.60938-0.91406 0.60938z" fill-rule="evenodd"/>
 <path d="m76.383 78.469h-58.777c-0.52734 0-0.97656-0.42578-0.97656-0.97656 0-0.55078 0.42578-0.97656 0.97656-0.97656h58.777c0.52734 0 0.97656 0.42578 0.97656 0.97656 0 0.55078-0.44922 0.97656-0.97656 0.97656z" fill-rule="evenodd"/>
 <path d="m67.004 78.469h-38.391c-0.30469 0-0.58984-0.14062-0.77344-0.38672-4.8438-6.5508-8.9297-11.961-13.754-17.07-0.30469-0.32422-0.57031-0.58984-0.875-0.89453-1.1992-1.2227-0.95703-2.3008-0.52734-2.9922 0.60938-0.99609 1.707-1.3438 2.8672-0.89453 6.4102 2.2188 11.578 4.6367 16.051 7.5469-0.10156-0.57031-0.22266-1.1172-0.32422-1.668-1.7695-8.2383-4.8828-16.602-9.2578-24.84-1.4844-2.8086-3.1328-5.5742-4.7422-8.2812-0.71094-1.1992-1.4648-2.4609-2.1758-3.7031-0.875-1.5469-0.34766-2.5625 0.0625-3.0117l0.019532-0.019532c0.79297-0.85547 1.9531-0.95703 3.1328-0.26562 3.9883 2.4023 7.7109 5.4727 11.414 9.3984 5.1055 5.3906 9.1953 11.477 12.168 18.086 0.46875 1.0156 0.9375 2.1367 1.3633 3.3164 0.875 2.3203 1.6289 4.7422 2.3594 7.082 0.039062 0.12109 0.082031 0.26562 0.12109 0.38672 0.97656-4.5586 1.9922-9.0117 3.418-13.387 0.8125-2.5234 1.668-4.7812 2.582-6.8984 1.3828-3.1719 2.7656-5.4102 4.457-7.2617 0.32422-0.34766 0.60938-0.60938 0.91406-0.89453l0.0625-0.039062c0.83594-0.77344 1.8125-0.9375 2.7461-0.48828 0.019531 0 0.039063 0.019532 0.0625 0.019532 0.62891 0.34766 1.3438 1.0781 1.1602 2.5039-0.082031 0.67188-0.18359 1.3438-0.28516 1.9922-0.18359 1.2812-0.36719 2.625-0.50781 3.9258-0.18359 1.7305-0.38672 3.457-0.58984 5.1875-0.32422 2.8906-0.67188 5.8984-0.97656 8.8516-0.039062 0.44922-0.082031 0.89453-0.14062 1.3438-0.039062 0.44922-0.10156 0.89453-0.14062 1.3438-0.24219 2.8086-0.38672 5.6562-0.55078 8.4414 1.9141-3.7227 4.1523-7 6.7734-9.9297 0.0625-0.082031 0.12109-0.14062 0.18359-0.22266 0.14062-0.16406 0.30469-0.34766 0.46875-0.50781 2.5234-2.6641 5.168-4.7812 8.1172-6.4492 1.4648-0.83594 2.9492-1.6875 4.3945-2.5234 1.8906-1.0977 3.8438-2.2188 5.7969-3.3164 1.1602-0.65234 2.1172-0.83594 3.2969 0.24219 1.1602 0.99609 0.55078 2.0156 0.28516 2.3398-0.32422 0.44922-0.67188 0.89453-0.99609 1.3633-0.89453 1.2422-1.832 2.5234-2.8086 3.7656-4.2305 5.4336-8.625 11.312-12.004 17.965-1.9531 3.7852-3.0508 6.8164-3.5391 9.8477v0.0625c0.039063 0.50781-0.38672 0.9375-0.91406 0.9375zm-37.902-1.9336h37.07c0.57031-3.0117 1.75-6.1641 3.6211-9.8281 3.4375-6.7969 7.9141-12.758 12.207-18.27 0.95703-1.2227 1.8711-2.4805 2.7656-3.7031 0.28516-0.40625 0.58984-0.79297 0.875-1.1992-0.28516-0.26562-0.36719-0.24219-0.95703 0.10156-1.9336 1.0781-3.8867 2.2188-5.7773 3.2969-1.4453 0.83594-2.9297 1.6875-4.3945 2.5234-2.7891 1.5859-5.2891 3.582-7.6719 6.1016l-0.019532 0.019531c-0.12109 0.12109-0.26562 0.28516-0.40625 0.42578-0.0625 0.082032-0.14062 0.16406-0.20312 0.22266-3.2344 3.6211-5.8398 7.7734-7.9961 12.695-0.019532 0.019531-0.019532 0.0625-0.039063 0.082031-0.0625 0.10156-0.10156 0.20312-0.14062 0.30469-0.0625 0.14062-0.12109 0.26562-0.20312 0.38672-0.16406 0.32422-0.48828 0.50781-0.875 0.50781-0.36719 0-0.69141-0.20312-0.85547-0.52734-0.20312-0.40625-0.28516-0.8125-0.24219-1.3008 0.0625-0.99609 0.10156-1.9922 0.16406-3.0117 0.16406-2.9922 0.30469-6.082 0.57031-9.1133 0.039062-0.46875 0.082031-0.91406 0.14062-1.3633 0.039063-0.44922 0.082031-0.89453 0.12109-1.3242 0.30469-2.9688 0.62891-5.9805 0.97656-8.8906 0.20312-1.7305 0.38672-3.457 0.58984-5.168 0.14062-1.3438 0.34766-2.6875 0.52734-3.9883 0.10156-0.65234 0.18359-1.3242 0.26562-1.9727 0.0625-0.40625-0.039063-0.48828-0.16406-0.57031-0.12109-0.0625-0.26562-0.10156-0.57031 0.18359l-0.039063 0.039062c-0.30469 0.28516-0.55078 0.50781-0.8125 0.8125-1.5469 1.668-2.8086 3.7422-4.1094 6.7344-0.89453 2.0547-1.7305 4.2305-2.5234 6.7148-1.4453 4.4766-2.4805 9.0742-3.4805 13.793v0.039062c-0.16406 0.65234-0.28516 1.3242-0.42578 2.0352-0.039063 0.22266-0.082032 0.44922-0.12109 0.67188-0.0625 0.32422-0.28516 0.58984-0.57031 0.71094-0.30469 0.12109-0.62891 0.082031-0.91406-0.082031-0.36719-0.24219-0.50781-0.50781-0.58984-0.73438 0-0.019531-0.019531-0.0625-0.019531-0.082031-0.36719-1.1172-0.71094-2.2383-1.0586-3.3359-0.71094-2.3008-1.4648-4.6992-2.3203-6.9766-0.42578-1.1602-0.875-2.2188-1.3242-3.1953-2.8906-6.4102-6.8555-12.328-11.801-17.559-3.582-3.7852-7.1836-6.7539-11.008-9.0547-0.50781-0.28516-0.65234-0.16406-0.71094-0.10156-0.14062 0.16406 0.019531 0.50781 0.16406 0.77344 0.71094 1.2227 1.4453 2.4609 2.1758 3.6641 1.6055 2.707 3.2773 5.5117 4.7812 8.3633 4.457 8.4023 7.6289 16.926 9.4414 25.352 0.16406 0.77344 0.30469 1.5469 0.46875 2.3594 0.10156 0.50781 0.20312 1.0391 0.30469 1.5859 0.082031 0.36719-0.082031 0.75391-0.38672 0.97656-0.30469 0.22266-0.73437 0.24219-1.0586 0.039063-0.082031-0.0625-0.16406-0.10156-0.22266-0.14062-0.16406-0.10156-0.30469-0.18359-0.44922-0.28516-4.6367-3.1953-10.031-5.7969-16.926-8.1992-0.42578-0.16406-0.50781-0.039063-0.57031 0.082031-0.082031 0.12109-0.14062 0.22266 0.26562 0.65234 0.30469 0.30469 0.58984 0.58984 0.91406 0.9375 4.7422 5.0234 8.7891 10.375 13.551 16.785z" fill-rule="evenodd"/>
<text x="0.0" y="117.5" font-size="5.0" font-weight="bold" font-family="Arbeit Regular, Helvetica, Arial-Unicode, Arial, Sans-serif" fill="#000000">Created by Junaid Ali</text><text x="0.0" y="122.5" font-size="5.0" font-weight="bold" font-family="Arbeit Regular, Helvetica, Arial-Unicode, Arial, Sans-serif" fill="#000000">from Noun Project</text></svg>