<svg xmlns="http://www.w3.org/2000/svg" version="1.1" viewBox="-5.0 -10.0 110.0 135.0">
 <g>
  <path d="m90.52 69.367c-1.9336-17.824-32.379-35.473-33.676-36.215l-0.011719-0.007813c-0.28125-0.15234-6.8945-3.7266-9.2734-4.0859l0.003906 0.003906c-0.79297-0.16797-1.6016 0.17578-2.0273 0.86328-2.6953 4.1406 4.1875 23.18 13.895 38.438 6.7695 10.637 14.969 14.941 21.078 14.941v-0.003907c1.2344 0.011719 2.4648-0.18359 3.6367-0.58203 4.793-1.6797 7.1172-6.5469 6.375-13.352zm-42.398-31.98c15.164 29.875 30.82 43.832 30.82 43.832-19.844-9.4258-30.816-43.832-30.816-43.832zm16.891 20.301c5.2344 7.8555 11.137 15.238 17.645 22.07-11.191-5.5742-17.645-22.07-17.645-22.07zm2.3516-12.41s18.789 9.0234 20.605 30.25c0 0-3.1875-13.762-20.605-30.25z"/>
  <path d="m35.078 17.016c-0.67188-0.45312-1.5508-0.43359-2.2031 0.046875-2.0195 1.3047-6.5781 7.2812-6.7734 7.5352l-0.007812 0.007813c-0.875 1.2109-21.367 29.82-15.801 46.863 2.0039 6.1406 5.7852 9.5859 10.461 9.5859 0.27734 0 0.5625-0.011719 0.84375-0.039063 6.4766-0.55859 14.438-8.0742 16.621-23.254 2.5781-17.898 1.0195-38.082-3.1406-40.746zm-19.926 59.02c-7.0742-20.098 6.3438-36.047 6.3438-36.047-9.0977 22.191-6.3438 36.047-6.3438 36.047zm13.59-25.703s0.90234 17.688-7.0078 27.371c3.1211-8.9023 5.4688-18.062 7.0078-27.371zm-3.0195 27.176s8.5312-19.16 10.062-52.629c0 0 4.1484 35.875-10.062 52.629z"/>
 </g>
</svg>
