<svg xmlns:dc="http://purl.org/dc/elements/1.1/" xmlns:cc="http://creativecommons.org/ns#" xmlns:rdf="http://www.w3.org/1999/02/22-rdf-syntax-ns#" xmlns:svg="http://www.w3.org/2000/svg" xmlns="http://www.w3.org/2000/svg" xmlns:sodipodi="http://sodipodi.sourceforge.net/DTD/sodipodi-0.dtd" xmlns:inkscape="http://www.inkscape.org/namespaces/inkscape" viewBox="0 0 12.7 15.875" version="1.1" x="0px" y="0px"><g transform="translate(0,-284.29998)"><path style="" d="m 2.910745,284.82923 a 0.07274685,0.07274685 0 0 0 -0.010132,0.1446 0.85263946,0.85263946 0 0 1 0.6819592,0.55461 1.6020664,1.6020664 0 0 0 -0.7392957,0.83365 0.56701242,0.56701242 0 0 1 -0.7925794,-0.44092 0.07284817,0.07284817 0 0 0 -0.1440818,0.0197 0.71249702,0.71249702 0 0 0 0.881351,0.59366 1.6020664,1.6020664 0 0 0 -0.033487,0.16086 0.87270517,0.87270517 0 0 0 1.0046752,1.02546 1.8564167,1.8564167 0 0 0 0.3151041,0.7865 0.78916621,0.78916621 0 0 1 -0.5500358,0.39933 0.69723934,0.69723934 0 0 0 -0.5632333,0.31001 0.07305073,0.07305073 0 1 0 0.1217914,0.0807 0.5517547,0.5517547 0 0 1 0.4551331,-0.24509 0.93465088,0.93465088 0 0 0 0.6353001,-0.42572 0.62803574,0.62803574 0 0 0 0.063935,0.0528 1.1471123,1.1471123 0 0 0 1.0746897,0.14715 0.65752277,0.65752277 0 0 0 0.053258,0.39171 0.61949605,0.61949605 0 0 1 -0.4054085,0.46124 0.53242507,0.53242507 0 0 0 -0.2800839,0.51045 0.07277622,0.07277622 0 0 0 0.1451209,-0.0112 h 0.00416 a 0.38694048,0.38694048 0 0 1 0.1943259,-0.36584 0.76498064,0.76498064 0 0 0 0.450093,-0.43689 0.65752277,0.65752277 0 0 0 0.6022804,0.21007 0.8676169,0.8676169 0 0 0 0.2110826,0.60433 0.62412483,0.62412483 0 0 1 -0.3734539,0.3846 0.35743744,0.35743744 0 0 0 -0.2034706,0.42977 0.07274235,0.07274235 0 1 0 0.1395354,-0.0406 0.21195286,0.21195286 0 0 1 0.1182322,-0.2542 0.76960939,0.76960939 0 0 0 0.4323231,-0.40998 0.8676169,0.8676169 0 0 0 0.5454634,0.19027 0.72966838,0.72966838 0 0 0 0.047179,0.41962 0.65303031,0.65303031 0 0 1 -0.2790707,0.25473 0.4154299,0.4154299 0 0 0 -0.2663927,0.33386 0.07274232,0.07274232 0 1 0 0.1441077,0.0192 0.26994523,0.26994523 0 0 1 0.1786084,-0.21921 0.7985149,0.7985149 0 0 0 0.3024261,-0.24712 0.72966838,0.72966838 0 0 0 0.2947882,0.23849 0.70700492,0.70700492 0 0 0 -0.049205,0.71496 0.62803574,0.62803574 0 0 0 0.084719,0.12735 0.57976075,0.57976075 0 0 0 -0.3886517,0.66317 0.75924322,0.75924322 0 0 0 -0.6885579,0.4105 0.98157011,0.98157011 0 0 0 -0.9732142,0.342 1.7646554,1.7646554 0 0 0 -1.2101722,0.12888 1.6509889,1.6509889 0 0 0 -0.8088165,0.85651 1.2560715,1.2560715 0 0 0 0.1527328,1.22893 1.6848652,1.6848652 0 0 0 0.6225962,0.51351 1.4037019,1.4037019 0 0 0 1.7266946,-0.23696 0.62803574,0.62803574 0 0 0 0.1045411,0.036 1.5496394,1.5496394 0 0 0 1.5552046,-0.50286 1.4042069,1.4042069 0 0 0 2.0306535,-1.03156 1.293526,1.293526 0 0 0 0.8950679,-2.05451 1.5072148,1.5072148 0 0 0 -0.126338,-2.11334 0.62803574,0.62803574 0 0 0 0.05276,-0.22732 1.5584053,1.5584053 0 0 0 -1.134052,-1.56791 1.4161285,1.4161285 0 0 0 -1.3405888,-1.39133 0.62803574,0.62803574 0 0 0 -0.00961,-0.0817 1.1393133,1.1393133 0 0 0 -1.3659447,-0.96713 0.62803574,0.62803574 0 0 0 -0.1359761,-0.17861 1.3468227,1.3468227 0 0 0 -1.0914464,-0.34249 1.6944933,1.6944933 0 0 0 -1.554711,-0.1492 0.99812411,0.99812411 0 0 0 -0.7935926,-0.6373 0.07274685,0.07274685 0 0 0 -0.010132,0 z m 1.4060309,0.66063 a 1.5490088,1.5490088 0 0 1 0.746388,0.17406 1.8564167,1.8564167 0 0 0 -1.3197533,1.91242 0.72722058,0.72722058 0 0 1 -0.8453436,-0.8555 1.4565818,1.4565818 0 0 1 0.8037246,-1.08992 1.5490088,1.5490088 0 0 1 0.6149843,-0.14106 z m 1.1847903,0.2608 a 1.2013382,1.2013382 0 0 1 0.7611184,0.31511 0.48255117,0.48255117 0 0 1 0.153746,0.40187 3.5168415,3.5168415 0 0 1 -1.0310442,2.16614 1.0016277,1.0016277 0 0 1 -1.063025,-0.0716 0.4825511,0.4825511 0 0 1 -0.1045411,-0.10402 1.7109321,1.7109321 0 0 1 1.0473074,-2.69435 1.2013382,1.2013382 0 0 1 0.2364385,-0.0133 z m 1.2741075,0.50845 a 0.9938287,0.9938287 0 0 1 0.9448187,0.8641 0.48255117,0.48255117 0 0 1 0,0.10605 2.7965723,2.7965723 0 0 1 -1.544579,2.17374 h 0.0026 a 0.51203818,0.51203818 0 0 1 -0.6860119,-0.66775 3.6623261,3.6623261 0 0 0 1.0716501,-2.25392 0.62803574,0.62803574 0 0 0 -0.014808,-0.20549 0.9938287,0.9938287 0 0 1 0.2263066,-0.0166 z m 1.0777553,1.07165 a 1.2706316,1.2706316 0 0 1 1.209159,1.30453 0.48255117,0.48255117 0 0 1 -0.037047,0.17151 2.5405599,2.5405599 0 0 1 -1.9991925,1.53289 0.72213223,0.72213223 0 0 1 -0.8052573,-0.79765 0.65752277,0.65752277 0 0 0 0.017146,-0.008 2.9434986,2.9434986 0 0 0 1.6150871,-2.20316 z m 1.346668,1.39587 a 1.4129208,1.4129208 0 0 1 0.998076,1.41263 0.48255117,0.48255117 0 0 1 -0.2141478,0.38005 3.9619579,3.9619579 0 0 1 -2.5223136,0.65406 v 0 a 0.58418371,0.58418371 0 0 1 -0.3683878,-0.69617 2.6860446,2.6860446 0 0 0 2.0672065,-1.61407 0.62803574,0.62803574 0 0 0 0.040086,-0.1365 z m 1.014314,1.7739 a 1.3617303,1.3617303 0 0 1 0.06799,1.91751 3.5306246,3.5306246 0 0 1 -2.6314275,-0.26688 v 0 a 0.48255117,0.48255117 0 0 1 -0.2059906,-0.21109 0.56152025,0.56152025 0 0 1 0.0756,-0.61651 4.1074425,4.1074425 0 0 0 2.5446561,-0.68298 0.62803574,0.62803574 0 0 0 0.149693,-0.14005 z m -2.6806585,1.75057 v 0 a 0.62803574,0.62803574 0 0 0 0.048711,0.0289 3.6761092,3.6761092 0 0 0 2.7110805,0.28619 1.1480413,1.1480413 0 0 1 -0.8397586,1.8343 2.3838627,2.3838627 0 0 1 -2.2889407,-1.58567 0.4342761,0.4342761 0 0 1 0.3683878,-0.56373 z m -0.5363186,0.69009 a 0.61375855,0.61375855 0 0 1 0.061389,0.003 2.5293473,2.5293473 0 0 0 2.3147901,1.60189 1.2587223,1.2587223 0 0 1 -1.8586439,0.87376 3.2036775,3.2036775 0 0 1 -1.079262,-2.11641 0.61375855,0.61375855 0 0 1 0.5302654,-0.36179 0.61375855,0.61375855 0 0 1 0.031461,0 z m -0.8686991,0.38816 a 0.83608552,0.83608552 0 0 1 0.1654108,0.0197 3.3491622,3.3491622 0 0 0 1.0777553,2.13821 1.4041548,1.4041548 0 0 1 -1.4014845,0.44653 0.48255117,0.48255117 0 0 1 -0.2932814,-0.21261 2.4671682,2.4671682 0 0 1 -0.2765247,-1.99717 0.83608552,0.83608552 0 0 1 0.7281245,-0.39475 z m -1.1868427,0.31105 a 1.6191707,1.6191707 0 0 1 0.3212092,0.0371 2.6126528,2.6126528 0 0 0 0.2907355,2.12095 0.62803574,0.62803574 0 0 0 0.14868,0.16391 1.2582173,1.2582173 0 0 1 -1.5293291,0.1852 1.5393807,1.5393807 0 0 1 -0.574898,-0.47189 1.1105869,1.1105869 0 0 1 -0.1344694,-1.08687 1.5055044,1.5055044 0 0 1 0.7382825,-0.78091 1.6191707,1.6191707 0 0 1 0.7397893,-0.16744 z" fill="#000000" stroke="none"/></g><text x="0" y="27.7" fill="#000000" font-size="5px" font-weight="bold" font-family="'Helvetica Neue', Helvetica, Arial-Unicode, Arial, Sans-serif">Created by Phạm Thanh Lộc</text><text x="0" y="32.7" fill="#000000" font-size="5px" font-weight="bold" font-family="'Helvetica Neue', Helvetica, Arial-Unicode, Arial, Sans-serif">from the Noun Project</text></svg>