<svg xmlns="http://www.w3.org/2000/svg" version="1.1" viewBox="-5.0 -10.0 110.0 135.0">
 <g>
  <path d="m93.148 17.629c-1.0195-2.3984-3.1484-3.1992-3.3906-3.2891-0.39844-0.14062-0.83984-0.10156-1.2109 0.10156-0.37109 0.19922-0.64062 0.55078-0.73828 0.96094-0.87891 3.5703-5.9297 5.5586-10.012 6.6094-0.80078 0.21094-1.2891 1.0195-1.0781 1.8203s1.0312 1.2891 1.8203 1.0781c5.8789-1.5 9.7109-3.8008 11.398-6.8398 0.17188 0.21094 0.32812 0.46875 0.46094 0.76953 0.48047 1.1797 0.26953 2.8281-0.62109 4.7695-2.1211 4.6094-13.449 7.3086-18.68 8.1484-0.87891-1.2812-2.1719-3.0703-3.8008-5.1602 1.5586-0.10156 3.5898-0.28906 5.8281-0.62109 0.82031-0.12109 1.3789-0.89062 1.2617-1.7109-0.12109-0.82031-0.89062-1.3789-1.7109-1.2617-3.4492 0.51172-6.4609 0.66016-7.75 0.69922-3.5117-3.8008-8.1211-4.3594-10.66-4.3203-1.0703 0.011719-2.1406 0.28125-3.0898 0.78125l-1.1914 0.62109-1.1914-0.62109c-0.96094-0.5-2.0312-0.76953-3.1094-0.78125-2.5195-0.039062-7.1406 0.53125-10.648 4.3281-6.4297-0.17188-21.289-1.8906-22.871-8.3281-0.10156-0.41016-0.37109-0.76172-0.73828-0.96094-0.37109-0.19922-0.80859-0.23828-1.2109-0.10156-0.23828 0.078126-2.3711 0.89063-3.3906 3.2891-0.85156 2.0117-0.64062 4.4492 0.64062 7.2305 2.8711 6.2617 15.629 8.9688 20.34 9.7617-0.078126 0.75-0.019532 1.5195 0.19141 2.2695 0.25 0.89062 0.44141 1.9688 0.57031 3.2188 0.37109 3.6992 1.7383 7.2695 3.8203 10.172 0.058593 0.10156 0.12891 0.19922 0.21875 0.28906 0.51172 0.67969 1.0508 1.3398 1.6406 1.9297 0.12891 0.12891 0.39844 0.46875 0.69141 1.2305 0.30078 0.76953 1.1719 1.1602 1.9414 0.85937 0.76953-0.30078 1.1602-1.1719 0.85938-1.9414-0.19141-0.5-0.39844-0.94141-0.62891-1.3086h0.16016c2.1719 0 3.4609-0.33984 3.5391-0.37109 0.73828-0.19922 1.2109-0.92969 1.0781-1.6914-1.1094-6.8086-7.8398-9.6406-10.449-10.488-0.14062-1.0117-0.32031-1.9219-0.55078-2.7188-0.25-0.87891-0.10156-1.7812 0.41016-2.5195 1.1484-1.6719 3.0508-4.3086 5.5703-7.3594 2.7617-3.3516 6.6914-3.8281 8.8086-3.8008 0.60156 0 1.1992 0.16016 1.7383 0.44141l1.8789 0.98828c0.42969 0.23047 0.94922 0.23047 1.3906 0l1.8906-0.98828c0.53906-0.28125 1.1406-0.42969 1.7305-0.44141 2.1406 0 6.0391 0.44922 8.8086 3.8008 2.5117 3.0391 4.4219 5.6797 5.5703 7.3594 0.51172 0.75 0.66016 1.6406 0.41016 2.5195-0.23047 0.80078-0.41016 1.7109-0.55078 2.7188-2.6094 0.85156-9.3398 3.6797-10.449 10.48-0.12109 0.76172 0.33984 1.4883 1.0781 1.6914 0.078125 0.019532 1.3711 0.37109 3.5391 0.37109h0.17969c-2.6406 4.4102-2.5898 15.82-2.5391 18.25 0.011719 0.46094 0.21875 11.148-10.352 13.148-10.602-1.9805-10.391-12.691-10.379-13.172 0-0.21094 0.089844-5.3203-0.46094-10.25-0.089844-0.82031-0.82812-1.4102-1.6602-1.3281-0.82031 0.089843-1.4219 0.82812-1.3203 1.6602 0.53125 4.7305 0.44141 9.8086 0.44141 9.8281 0 0.14062-0.33984 13.859 12.988 16.23 0.12109 0.03125 0.25 0.050781 0.37891 0.050781 0.078125 0 0.17188 0 0.25-0.019531 13.449-2.3203 13.121-16.121 13.109-16.23-0.10938-5.9492 0.55859-15.172 2.3906-17.012 0.58984-0.58984 1.1289-1.25 1.6406-1.9297 0.078125-0.089843 0.14844-0.17969 0.21094-0.28125 2.0586-2.8594 3.4102-6.3906 3.8008-10.059v-0.039063c0-0.03125 0-0.050781 0.011719-0.078125 0.12109-1.25 0.32031-2.3281 0.57031-3.2109 0.21094-0.75 0.26953-1.5195 0.19141-2.2695 4.6992-0.80078 17.461-3.5 20.34-9.7617 1.2812-2.7891 1.4883-5.2305 0.64062-7.2383zm-54.609 30.66c-0.94141 0.070313-2.3203 0.070313-3.9883-0.16016-1.1719-1.75-2.0508-3.7891-2.5586-5.9102 2.1914 0.94922 5.3398 2.8203 6.5508 6.0703zm-9.6484-16.527c-5.2305-0.83984-16.57-3.5312-18.68-8.1484-0.89063-1.9414-1.1016-3.5898-0.62109-4.7695 0.12109-0.30078 0.28125-0.55859 0.46094-0.76953 3.6914 6.6094 16.551 8.1797 22.629 8.5508-1.6289 2.0898-2.9102 3.8711-3.7891 5.1406zm32.559 16.527c1.2109-3.2383 4.3594-5.1211 6.5508-6.0703-0.51172 2.1211-1.3906 4.1602-2.5586 5.9102-1.6797 0.23047-3.0508 0.23047-3.9883 0.16016z"/>
  <path d="m57.57 72.52c0.82813 0 1.5-0.67188 1.5-1.5v-7.6094c0-0.83984-0.51172-1.6016-1.2891-1.9297-0.80859-0.35156-1.7383-0.17969-2.3711 0.42969l-2.4414 2.3398-2.4219-0.62109c-0.35938-0.089844-0.73828-0.089844-1.0898 0l-2.4219 0.62109-2.4414-2.3398c-0.62891-0.60156-1.5586-0.76953-2.3711-0.42969-0.78125 0.32812-1.2891 1.0898-1.2891 1.9297v7.5391c-0.039063 0.55859-0.14062 3.0391 1.3789 5.0312 0.070312 0.10156 0.16016 0.17969 0.25 0.26172 0.078125 0.10156 0.17188 0.23828 0.28125 0.39844 1.1914 1.6797 2.5391 3.5781 4.2617 3.0117 1.5703-0.51172 1.5391-2.5 1.5195-3.25-0.019531-0.98828 0.17969-1.7305 0.53906-2.0898 0.30859-0.30078 0.71094-0.28906 0.69141-0.28906h0.26953c0 0.011718 0.37109 0 0.66016 0.26953 0.37891 0.35156 0.57812 1.1016 0.55859 2.1094-0.011719 0.75-0.039062 2.7383 1.5195 3.25 0.21094 0.070312 0.42188 0.10156 0.62109 0.10156 1.4297 0 2.6016-1.6406 3.6484-3.1094 0.10938-0.16016 0.21094-0.28906 0.28125-0.39844 0.62109-0.5 0.75-1.4102 0.26953-2.0586-0.28906-0.39062-0.75-0.60938-1.2305-0.60938-0.82031 0-1.1797 0.51172-1.7617 1.3281-0.089844 0.12109-0.21875 0.30859-0.37891 0.53125-0.14062-1.4297-0.62891-2.5508-1.4805-3.3398-1.1016-1.0195-2.4102-1.0898-2.8398-1.0703-0.42969-0.019532-1.7383 0.050781-2.8398 1.0703-0.85156 0.78906-1.3516 1.9102-1.4805 3.3398-0.16016-0.21875-0.30078-0.41016-0.37891-0.53125-0.26172-0.37109-0.48047-0.67188-0.71094-0.89844-0.80078-1.1992-0.66016-2.8203-0.66016-2.8281v-0.14844-5.5898l1.3594 1.3008c0.53906 0.51953 1.3281 0.71875 2.0586 0.53125l2.6602-0.67969 2.6484 0.67969c0.73047 0.19141 1.5195-0.011719 2.0586-0.53125l1.3594-1.3008v5.5898c0 0.82812 0.67188 1.5 1.5 1.5z"/>
 </g>
<text x="0.0" y="117.5" font-size="5.0" font-weight="bold" font-family="Arbeit Regular, Helvetica, Arial-Unicode, Arial, Sans-serif" fill="#000000">Created by BEDESCHI LEONARDO</text><text x="0.0" y="122.5" font-size="5.0" font-weight="bold" font-family="Arbeit Regular, Helvetica, Arial-Unicode, Arial, Sans-serif" fill="#000000">from Noun Project</text></svg>