<svg xmlns="http://www.w3.org/2000/svg" version="1.1" viewBox="-5.0 -10.0 110.0 135.0">
 <path d="m63.633 57.148c2.1367-11.605 7.3594-22.418 15.129-31.301-13.539 4.9141-24.48 15.148-30.281 28.328 2.6133 4.9688 4.0469 10.473 4.1992 16.082 1.918-3.7148 4.4102-7.1094 7.375-10.059 1.1172-1.1055 2.3125-2.125 3.5781-3.0547zm-8.6094-16.363c-2.9805 3.5859-5.4844 7.543-7.4492 11.773-1.6328-2.7539-3.6172-5.2852-5.9102-7.5234 0.089844-5.2578-0.32812-10.512-1.2383-15.688-0.94141-4.6914-2.3672-9.2695-4.2617-13.664 10.148 4.6133 17.254 14.07 18.859 25.102zm-5.1016 43.531c1.0117-8.7305 4.9531-16.859 11.18-23.062 1.0898-1.0781 2.2578-2.0703 3.5-2.9727 0.10547-0.042969 0.19922-0.11328 0.27344-0.19922 4.3359-3.0703 9.4062-4.9375 14.699-5.4102 5.293-0.46875 10.617 0.46875 15.426 2.7266-7.2539 0.76172-14 4.0938-19.008 9.3984-5.0039 5.3086-7.9453 12.23-8.2852 19.52zm-7.8906 0c0.78516-8.0234-2.4531-15.914-8.6484-21.07-0.92578-5.9688-3.2578-11.637-6.8008-16.531-3.0938-4.2812-7.0273-7.8945-11.559-10.613 9.3555-0.27734 18.434 3.1875 25.223 9.625 0.078125 0.16797 0.21484 0.30078 0.38672 0.375 7.3125 7.1484 11.145 17.133 10.5 27.34-0.003906 0.050782 0 0.10156 0.007813 0.15234-1.3945 3.4336-2.3086 7.0352-2.7227 10.715zm-15.242 0h13.746c0.61328-5.8047-1.0195-11.621-4.5664-16.254s-8.7344-7.7305-14.496-8.6523c-5.7617-0.92578-11.656 0.39453-16.473 3.6914 5.7852-0.37109 11.453 1.7227 15.605 5.7656 4.1523 4.043 6.3984 9.6562 6.1797 15.449z" fill-rule="evenodd"/>
<text x="0.0" y="117.5" font-size="5.0" font-weight="bold" font-family="Arbeit Regular, Helvetica, Arial-Unicode, Arial, Sans-serif" fill="#000000">Created by clothesjepara</text><text x="0.0" y="122.5" font-size="5.0" font-weight="bold" font-family="Arbeit Regular, Helvetica, Arial-Unicode, Arial, Sans-serif" fill="#000000">from Noun Project</text></svg>