<svg xmlns="http://www.w3.org/2000/svg" viewBox="20 -50 512 640" x="0px" y="0px"><g><path d="M216,296a8,8,0,0,1-6.431,7.845l-34.45,6.889L169.224,352H179.51a7.988,7.988,0,0,0,7.759-6.061l4.97-19.879a8,8,0,0,1,5.82-5.821l22.7-5.677,9.854-24.635L216,275.314Z"/><path d="M205.4,192a55.85,55.85,0,0,1,11.428-16H198.46a71.889,71.889,0,0,0-69.849,54.539l-15.76,63.041A55.917,55.917,0,0,1,58.52,336H40a8,8,0,1,0,0,16H57.54a71.889,71.889,0,0,0,69.849-54.539l15.76-63.041A55.917,55.917,0,0,1,197.48,192Z"/><path d="M474.526,339.938l-13.054-4.348a8,8,0,0,1-4.991-4.856L426.4,248H412.944l-5.907,11.814L437.766,352H480v-4.47A8,8,0,0,0,474.526,339.938Z"/><path d="M432,232h11.72a20.281,20.281,0,0,0,14.343-34.624l-7.72-7.719a8,8,0,0,1-2.107-3.728l-.39-1.571a32.123,32.123,0,0,0-36.57-23.9L412.8,161.6l-9.6,12.8-15.52-11.639a9.192,9.192,0,1,0-10.615,15l11.373,7.581-8.876,13.312-11.372-7.581A25.124,25.124,0,0,1,357.7,176H256a39.947,39.947,0,0,0-40,40v36.687l29.657,29.656a8,8,0,0,1,1.771,8.628L232,329.542V352h48v-4.47a8,8,0,0,0-5.474-7.592l-13.054-4.348a8,8,0,0,1-4.825-10.741l22.938-53.523-15.174-52.8,15.178-5.06L285.766,232H352a8,8,0,0,1,7.589,10.53L328,337.3V352h40a8.009,8.009,0,0,0-8-8,8,8,0,0,1-7.155-11.578l48-96A8,8,0,0,1,408,232Z"/></g></svg>
