<svg xmlns="http://www.w3.org/2000/svg" xmlns:xlink="http://www.w3.org/1999/xlink" version="1.1" x="0px" y="0px" viewBox="0 0 100 125" style="enable-background:new 0 0 100 100;" xml:space="preserve"><style type="text/css">
	.st0{fill:none;}
</style><g><ellipse class="st0" cx="23.2181072" cy="64.7310562" rx="0.4886475" ry="0.1022949"/><path class="st0" d="M16.6089153,62.8387833c-0.1761475-0.1016846-0.3362427-0.1542358-0.3575439-0.1173706   c-0.0212402,0.0368652,0.1043091,0.149231,0.2804565,0.2509155c0.1762085,0.1017456,0.3362427,0.1542969,0.3575439,0.1174316   S16.7851238,62.9405289,16.6089153,62.8387833z"/><path class="st0" d="M33.4626122,57.9172134c-0.5234375,0-0.9492188,0.4257812-0.9492188,0.9482422   c0,0.5234375,0.4257812,0.9492188,0.9492188,0.9492188c0.5224609,0,0.9482422-0.4257812,0.9482422-0.9492188   C34.4108543,58.3429947,33.9850731,57.9172134,33.4626122,57.9172134z"/><path d="M50.3620262,24.8117466c0.1072998,0.1279297,0.1820068,0.276123,0.2352295,0.4381104   c0.9535522-0.9797363,2.0807495-1.734314,3.4115601-2.3630371c-0.8129272-0.5705566-2.1613159-1.277832-3.9124146-1.3455811   c-2.5097656-0.0898438-4.296875,1.1503906-5.0195312,1.7700195l-1.0791016,2.5698242   C47.5973778,24.2028599,49.5807762,23.8781528,50.3620262,24.8117466z"/><path d="M32.0290184,46.4640884c-0.256834,0.1621094-0.4492168,0.3564453-0.5927715,0.5498047   c1.0009747,0.0527344,2.3847637,0.3183594,3.7470684,1.2060547c1.2086792,0.786499,1.9657593,1.7750854,2.4262695,2.5800781   c1.1984253-0.4996338,2.2937622-1.0635376,3.2890015-1.6876831c-0.3895264-0.7420654-1.2139282-1.9286499-2.7660522-2.6257935   c-1.7373047-0.7802734-3.3564453-0.4560547-3.9697266-0.2822266l-0.1357422,0.0390625l-0.1367188-0.0380859   C33.6540184,46.1398697,32.820034,45.9631119,32.0290184,46.4640884z"/><path d="M64.1365051,20.9836826c-5.0798988,0.7416382-10.8129311,1.9302979-13.7490883,6.074707   c-1.8320312,2.5859375-1.7441406,5.1948223-1.6513672,7.9565411c0.0976562,2.9116211,0.1982422,5.921875-1.7314453,9.3193359   c-1.8613281,3.2783203-5.0351562,5.8251953-9.4833984,7.5888672c-4.805481,1.335083-8.5974102,2.5586548-11.586729,3.6756592   c0.2603149,0.2645874,0.47229,0.5827026,0.602356,0.9532471c-0.2994385-0.0498657-0.6417847-0.1279907-1.0112305-0.2516479   c-0.2584229-0.0865479-0.491272-0.182373-0.6975708-0.2787476c-0.2697144-0.1447144-0.5717163-0.2271118-0.8771362-0.196167   c-0.6317749,0.060791-1.1359863,0.5115967-1.3256836,1.1039429c-0.2001953,0.0875244-0.3916626,0.1737671-0.5814209,0.2597656   c-5.1730347,2.3442383-6.5103159,4.1167603-6.4278574,5.3491821c0.0558472,0.8346558,0.8059702,1.5401611,1.7070932,2.121521   c1.5006104,0.5618896,3.8979492,1.2515869,6.8496094,1.3139038c5.2643433,0.1112061,9.3388653-1.8383789,11.4545879-3.0681763   c-1.5993652,1.2644043-3.8674908,2.6700439-6.7906475,3.3005981c-4.2591553,0.9187012-8.3112183-0.1516113-10.7820435-1.1136475   c0.5424194,0.2940063,1.0894165,0.5505371,1.5418701,0.7583008c6.3388672,2.90625,15.0673809,0.8427734,20.0634747-2.578125   c2-1.3691406,3.15625-2.8242188,3.0917969-3.8935547c-0.0507812-0.8564453-0.9238281-1.7255859-2.5927734-2.5849609   c0,0,3.5166016,1.2744141,3.5908203,2.5253906c0.0083008,0.1384888-0.0068359,0.2808228-0.0222778,0.4232178   c0.7445068,0.434082,1.423584,0.9591064,1.9920044,1.6051025c0.4238281,0.4833984,0.7910156,1.0214844,1.0908203,1.6005859   l0.1689453,0.3261719l-0.2617188,0.2587891c-1.2216797,1.2070312-2.0976562,2.5859375-2.6044922,4.0986328   c-0.1123047,0.3359375-0.1777344,0.5917969-0.2363281,0.8203125c-0.0820312,0.3173828-0.1591797,0.6181641-0.3261719,0.9960938   c-0.7421875,1.6767578-2.4238281,2.9833984-5,3.8847656c-0.1699219,0.0585938-0.3251953,0.1132812-0.46875,0.1640625   c0.5019531,0.046875,4.0566406,1.9042969,4.0371094,2.3085938c0.2011719-0.3339844,0.4462891-0.7539062,0.7431641-1.2822266   l0.140625-0.1582031c2.7705078-2.0283203,4.9277344-4.3183594,6.4111328-6.8066406   c0.4199219-0.703125,0.9423828-1.5791016,1.3320312-2.8554688c0.3579102-1.1738281,0.4038086-2.0283203,0.4804688-3.4443359   c0.027832-0.5214844,0.0600586-1.1132812,0.112793-1.8164062c0.0175781-0.2351074,0.045166-0.4747925,0.0656738-0.7114868   l-0.0437012-0.0736694c0.0183716-0.0109253,0.0351562-0.0219116,0.0535278-0.0328369   c0.0999146-1.1298218,0.2238159-2.2709351,0.3878784-3.4095459c0,0,0.7641602,1.887146,0.6763916,2.7563477   c7.668396-4.7818604,11.7106972-9.824707,12.0018959-15.003418c0.1889648-3.3720703-1.2636757-6.0488281-2.545414-8.4106445   c-0.5593872-1.0307617-1.0964966-2.0383911-1.4781494-3.0510845c-0.1536865-0.4077759-0.2751465-0.8171997-0.3653564-1.2286987   c0.3761597,0.156189,0.757019,0.3045654,1.1436768,0.4447021c1.1164551,0.4046021,2.2702026,0.7487793,3.4561806,1.0137939   c1.1342773,0.2529297,2.3032227,0.4418926,3.480957,0.5629864l0.706543-2.8652325   c-1.6723633-0.0629883-3.3339844-0.2666016-4.9477577-0.6069336c-0.9919434-0.2094727-1.9537964-0.4864502-2.8967896-0.7957764   c-0.319519-0.1048584-0.630249-0.2227783-0.942688-0.338623c-0.0007935-0.0003662-0.0028076-0.0014648-0.0045776-0.00354   c-0.0986328-0.1182861,1.9824219-2.0029297,2.1156006-2.1226196c2.4685707-2.2178345,8.3459511-2.3572998,13.7301064-2.625   c1.9356079-0.0962524,4.8517456-0.2609863,8.4545288-0.5454712C75.504364,19.9255161,68.363678,20.3664341,64.1365051,20.9836826z    M16.5318279,62.9723282c-0.1761475-0.1016846-0.3016968-0.2140503-0.2804565-0.2509155   c0.0213013-0.0368652,0.1813965,0.015686,0.3575439,0.1173706c0.1762085,0.1017456,0.3017578,0.2141113,0.2804565,0.2509766   S16.7080364,63.0740738,16.5318279,62.9723282z M23.2181072,64.8333511c-0.2698364,0-0.4886475-0.0457764-0.4886475-0.1022949   c0-0.0564575,0.218811-0.1022949,0.4886475-0.1022949c0.2698975,0,0.4886475,0.0458374,0.4886475,0.1022949   C23.7067547,64.7875748,23.4880047,64.8333511,23.2181072,64.8333511z M33.4626122,59.8146744   c-0.5234375,0-0.9492188-0.4257812-0.9492188-0.9492188c0-0.5224609,0.4257812-0.9482422,0.9492188-0.9482422   c0.5224609,0,0.9482422,0.4257812,0.9482422,0.9482422C34.4108543,59.3888931,33.9850731,59.8146744,33.4626122,59.8146744z"/><path d="M34.5807762,75.3391495l2.4545898-0.0341187l-0.4431763,1.5511475l2.25-0.6647949c0,0-0.375,1.6704712-0.375,1.7727661   c0,0.1022339,1.9772339-0.8864136,1.9772339-0.8864136l0.6477661,2.4204712l0.5454102-2.7954712l-4.5681763-2.4885864   L34.5807762,75.3391495z"/><path d="M31.1275311,46.7622452c0.1678467-0.187561,0.5987549-0.6177368,1.3055401-0.8095093   c0.5513306-0.1495361,1.0180054-0.0855103,1.2613525-0.0340576c-0.1477051-0.5511475-0.2954712-1.1022949-0.4431763-1.6534424   l-0.3579712,0.8693237c-0.1724243-0.2982788-0.6116333-0.3323364-0.7840576-0.6306763l-0.2216167,0.9970703   c0,0-0.9553223-0.3395386-1.0056763-0.366394c-0.050293-0.0267944,0.3742065,0.9422607,0.3742065,0.9422607l-1.3608398-0.3164673   C30.3060589,46.0943375,30.7167645,46.4282608,31.1275311,46.7622452z"/><path d="M69.5921936,29.4868565l-0.6477661,3.0340557l3.7841187,0.6818237L70.683075,31.873209l2.25,0.2386456   l-1.9431763-0.9204693c0,0,2.3863525,0.1363525,2.5227051,0.1363525s-2.4545288-0.8522339-2.4545288-0.8522339   s3.0341187-0.2045898,3.1704712-0.2045898S69.5921936,29.4868565,69.5921936,29.4868565z"/><path d="M42.5239525,24.5095615c-0.1022339,0-1.8067627,0.7159424-1.5681763,0.7159424   c0.2386475,0,1.6704712-0.0341187,1.6704712-0.0341187s-1.6704712,0.9204712-1.5,0.9204712   s1.3977051-0.2307739,1.3977051-0.2307739l-0.8863525,0.878479l1.8068237-0.878479l0.7841187-2.3942261   c0,0-3.9545898,0.9545288-3.6818237,0.9886475C40.8194237,24.5095615,42.6262474,24.5095615,42.5239525,24.5095615z"/></g><text x="0" y="115" fill="#000000" font-size="5px" font-weight="bold" font-family="'Helvetica Neue', Helvetica, Arial-Unicode, Arial, Sans-serif">Created by Royhan Hariri</text><text x="0" y="120" fill="#000000" font-size="5px" font-weight="bold" font-family="'Helvetica Neue', Helvetica, Arial-Unicode, Arial, Sans-serif">from the Noun Project</text></svg>