<svg xmlns="http://www.w3.org/2000/svg" version="1.1" viewBox="-5.0 -10.0 110.0 135.0">
 <path d="m52.965 64.129-0.34375-0.54688c0.59766-0.5 1.2188-1.043 1.875-1.6445 0.375 0.28516 0.76172 0.57422 1.1523 0.86719-1.1406 0.42187-2.0547 0.85937-2.6836 1.3242zm-4.0586-4.7461c0.71875 0.070313 1.375 0.44531 1.7695 1.0781l1.4102 2.2617c0.51172-0.42969 1.043-0.89844 1.6016-1.4062-1.2812-0.98438-2.5039-1.9453-3.6602-2.8828-0.38281 0.33203-0.75781 0.65234-1.1211 0.94922zm-23.258-10.246c-0.14063 0.0625-0.30078 0.0625-0.4375-0.007813-0.13672-0.070312-0.23438-0.19531-0.26563-0.34766-0.12891-0.64453-0.38281-1.2891-0.76172-1.9258 0.20312 1.1602 0.34766 2.4219 0.3125 3.3906l2.9492-1.1602c-0.074218-0.21484-0.14844-0.43359-0.21094-0.65234-0.39062 0.16016-1.0312 0.44531-1.5859 0.70312zm54.82 7.6953c0.03125-0.078125 0.074219-0.14844 0.14453-0.20312l2.707-2.1289c-3.4688 1.5039-7.0938 2.8906-10.82 4.1719 2.6094-0.57031 5.3086-1.1797 7.9688-1.8398zm-23.809 5.4805c0.039063 0.027344 0.066406 0.066406 0.09375 0.10156 1.7852-0.58203 3.9922-1.1445 6.5117-1.7266-1.0703-0.87109-2.0898-1.7148-3.0742-2.5625-3.3945-3.6758-6.9336-7.3125-10.176-9.5234-1.1016 2.0547-2.3828 3.7812-3.8711 5.2266 3 2.6719 6.4414 5.4453 10.516 8.4844zm7.6406-2.0664c0.027344-0.011719 0.050781-0.03125 0.078125-0.042969 7.9102-2.2812 15.402-5.0781 22.266-8.3047 0.23047-0.10938 0.50391-0.023438 0.63672 0.1875 0.13281 0.21875 0.082031 0.5-0.11719 0.65625l-4.4688 3.5156c1.2266-0.32422 2.4336-0.65625 3.6055-1.0078 0.5625-0.16797 1.1367-0.20703 1.6953-0.15234 0.027344-0.070312 0.066406-0.13281 0.125-0.1875l1.9219-1.7227c1.1016-0.96094 1.4336-2.5508 0.80859-3.8672-0.65625-1.3828-2.2148-2.1328-3.7031-1.7734l-3.2539 0.77344c-10.434 2.4766-23.375 5.5547-24.551 7.4453 0.51562 0.54688 1.0312 1.0977 1.5391 1.6484 1.0625 0.90625 2.1992 1.8516 3.418 2.832zm-29.961-10.703c-1.8125 1.3789-2.9492 2.6172-3.5195 3.8477-0.36328-0.32031-0.64453-0.875-0.86719-1.7031-0.015625-0.0625-0.046875-0.125-0.085937-0.17578-3.2734-4.2461-2.1758-9.9805-0.24219-13.602 1.6797-3.1406 4.1641-5.0703 6.2852-4.9336 1.9375 0.13281 3.5898 1.8906 4.7812 5.0781 0.75391 3.1211-2.7773 7.9727-6.3516 11.488zm2.2852-14.574c-1.0352-0.59766-2.8086 0.53125-3.9609 2.5273-1.1523 1.9922-1.2422 4.0938-0.20703 4.6914 1.0352 0.59766 2.8086-0.53125 3.9609-2.5273 1.1523-1.9883 1.2461-4.0898 0.20703-4.6914zm6.9297 27.191c-0.13281-0.0625-0.27344-0.097656-0.41406-0.097656-0.125 0-0.25391 0.023438-0.37109 0.078125-0.25781 0.10938-0.40625 0.37891-0.36328 0.65625l1.2344 7.8984c0.21094 1.3438 0.054687 2.7188-0.45312 3.9844l-1.6562 4.1289c-0.51562 1.2734-0.77344 2.6914-0.77344 4.2148 0 1.0703-0.058593 2.043-0.1875 2.9336 0.50391-1.0938 0.94531-2.4102 1.3164-3.9336 0.10547-0.42969 0.23438-0.83594 0.38281-1.1992l3.5625-8.6836c0.26953-0.65625 0.32031-1.3984 0.13672-2.0859l-1.918-7.2852c-0.066406-0.26562-0.24609-0.48828-0.49609-0.60938zm0.4375-0.89844c0.078124 0.039062 0.14453 0.089843 0.21484 0.13281 1.5664-0.84766 3.1836-2.0117 5.0312-3.6055-1.3516-1.1133-2.625-2.1953-3.8242-3.2656-1.7773 1.5391-3.8477 2.707-6.25 3.5586 0.85547 1.2266 1.8008 2.3438 2.8398 3.3711 0.11328-0.089844 0.23047-0.17578 0.36719-0.23438 0.52344-0.21875 1.1133-0.20703 1.6211 0.042969zm3.2734-0.60938c-0.81641 0.58984-1.6016 1.0781-2.3789 1.5078 0.054687 0.11328 0.10156 0.23047 0.13672 0.35547l0.48047 1.832c0.73828 0.50391 1.5078 0.97266 2.3242 1.4141 0.33984-0.19141 0.67969-0.40625 1.0156-0.62109-0.62109-1.1484-1.082-2.5352-1.5352-4.0859-0.039063-0.13281-0.046875-0.26953-0.042969-0.40234zm-12.422-6.9336c-0.42969 1.2852-1.5273 2.2031-2.8672 2.3984l-4.6953 0.67969c-1.4688 0.21094-2.8906 0.67969-4.2344 1.3867-2.1797 1.1484-4.5547 2.5234-7.6953 4.4492-0.70703 0.43359-1.5312 0.60938-2.3203 0.49219-1.2227-0.17969-2.3398-0.14844-3.3672 0.10156 1.0898 0.14453 2.0664 0.36719 2.918 0.66406 1.2383 0.43359 2.5703 0.32031 3.6484-0.30859l7.7383-4.5156c0.59375-0.34766 1.2383-0.58984 1.9102-0.71875l7.6367-1.4844c0.42188-0.082031 0.82812-0.21875 1.2148-0.40625l1.7656-0.86328c-0.47656-0.90625-0.91406-1.8594-1.3203-2.8555zm14.027 12.574c0.42188 0.20703 0.85547 0.40625 1.2969 0.59766-0.29297-0.26953-0.55859-0.57031-0.79688-0.90234-0.16406 0.10156-0.33203 0.20312-0.5 0.30469zm0.39844-18.402c-1.9336-3.3633-4.4492-6.3281-7.4883-8.8477-0.070312 4.1211-4.6836 9.1562-6.5273 11.004 0.89453 2.7031 2.0078 5.082 3.3555 7.1836 4.8047-1.6484 8.1992-4.625 10.66-9.3398zm28.543 22.438c2.6367-2.6641 5.2422-5.3594 7.7852-8.0977 0.0625-0.066407 0.042969-0.13281 0.015625-0.17969-0.054687-0.09375-0.125-0.070312-0.15234-0.066406-3.9844 1.0742-7.8047 2.3711-11.504 3.625-0.61719 0.21094-1.2266 0.41797-1.8281 0.61719 1.6328 1.1953 3.2305 2.3438 4.7617 3.4414zm-13.93-1.5742c-2.1484 0.53906-4.1016 0.86719-5.8516 0.89844l3.1562 1.8906c0.011719-0.007813 0.019531-0.019531 0.035156-0.027344 1.6914-0.79688 2.8906-1.4023 3.5234-2.1641-0.28906-0.19531-0.57812-0.39453-0.86328-0.59766zm26.629-11.055c-0.81641-1.3242-2.4297-1.9336-3.9219-1.4883-5.3867 1.6094-11.48 2.9219-16.859 4.082-7.6367 1.6445-14.848 3.1992-16.523 4.9414-0.10547 0.10938-0.25781 0.16797-0.41406 0.14844-0.15234-0.015624-0.28906-0.10156-0.37109-0.23437l-2.5938-4.1641c-0.27344-0.4375-0.76562-0.67969-1.2734-0.63281-0.13281 0.019532-0.21094 0.10156-0.24219 0.14844s-0.082031 0.14453-0.042969 0.27344c1.0156 3.4844 1.875 5.8125 4.4805 6.3594 0.078125 0.015626 0.15234 0.050782 0.21484 0.10156 3.8281 3.1406 11.633 0.49219 20.672-2.5742 3.7109-1.2578 7.5508-2.5625 11.566-3.6445 0.097656-0.027344 0.19922-0.039063 0.29688-0.039063 0.39062 0 0.75781 0.20313 0.96875 0.55469 0.26953 0.44531 0.21484 1-0.13672 1.3789-6.2695 6.7461-12.848 13.305-19.555 19.488-0.23047 0.21094-0.33984 0.51172-0.29688 0.82031 0.039062 0.30859 0.22266 0.57031 0.5 0.71875 3.9453 2.0781 6.7344 3.7383 8.7383 5.2188-0.35938-0.89844-1.0195-1.6484-1.8633-2.1172l-5.2266-2.918c-0.29688-0.16406-0.5-0.46875-0.54297-0.80859-0.039063-0.33984 0.085937-0.68359 0.33594-0.91406l21.406-19.73c1.3867-1.2773 1.6719-3.3672 0.68359-4.9688zm-17.52 17.41c-0.85547-0.59766-1.7148-1.1953-2.5742-1.7969-0.67969 0.83984-1.6016 1.543-2.7617 2.1016 1.043 0.625 2.0898 1.2461 3.1133 1.8555 0.74219-0.71094 1.4805-1.4375 2.2227-2.1602zm-7.8438-6.6914c1.5312 1.0742 3.0625 2.1445 4.5977 3.2109 0.25781 0.17969 0.51562 0.35938 0.77344 0.53906 0.03125 0.011719 0.066407 0.019531 0.097657 0.039062 0.035156 0.023438 0.058593 0.054688 0.085937 0.085938 1.0078 0.70312 2.0156 1.4023 3.0156 2.1055 1.1328-1.1094 2.2617-2.2227 3.3828-3.3516l-0.79687-0.57031c-1.7109-1.2266-3.5-2.5117-5.3398-3.8633-2.0508 0.68359-3.9922 1.3047-5.8164 1.8047zm4.4492 4.3242c-0.14062-0.097657-0.28125-0.19531-0.42188-0.29297-1.2031-0.83594-2.4062-1.6797-3.6094-2.5195-0.67578 0.85547-1.8047 1.4844-3.3594 2.2305 1.4766 0.88281 2.9492 1.7695 4.4102 2.6445 1.2969-0.52344 2.2812-1.2227 2.9805-2.0625zm9.8242 6.9414c-1.2695-0.92188-2.5117-1.8086-3.7031-2.6523l-2.0938 1.9297c1.3203 0.77734 2.5625 1.4961 3.7422 2.1758 0.039062-0.019531 0.078124-0.042969 0.125-0.050781 0.85547-0.16797 1.4805-0.64063 1.9297-1.4023zm0.54297-6.5664-3.4961 3.2227c1.2227 0.86719 2.5 1.7773 3.8008 2.7266 0.007813 0.003906 0.015625 0 0.023438 0.003906 0.070312 0.03125 0.12891 0.082032 0.17578 0.14063 3.5195 2.5664 7.2383 5.4023 10.75 8.4141 0.015625-0.007812 0.03125-0.011719 0.046875-0.023438 0.48828-0.32422 0.75781-0.83984 0.73047-1.4141-0.17969-4.0898-5.7773-8.5156-12.031-13.07zm4.3984 11.941c2.0078 1.082 3.7422 1.9688 5.2266 2.6719 0.10938 0.050781 0.21875 0.082031 0.33203 0.10938-1.4766-1.25-2.9844-2.4688-4.5-3.6484-0.27734 0.35547-0.62891 0.64844-1.0586 0.86719zm0.26953-1.4844c-1.4805-1.1406-2.957-2.2422-4.4062-3.3008-0.43359 0.70312-1 1.2227-1.7109 1.5312 1.7148 0.98047 3.2734 1.8555 4.7031 2.6367 0.03125-0.015625 0.058594-0.035156 0.09375-0.046875 0.59375-0.15234 1.0195-0.42578 1.3203-0.82031zm-48.766-47.312c-0.66406-0.38281-1.8047 0.34375-2.543 1.6211-0.73828 1.2812-0.80078 2.6289-0.13281 3.0156 0.66406 0.38281 1.8047-0.34375 2.543-1.6211 0.73828-1.2812 0.79688-2.6328 0.13281-3.0156zm-4.1797-1.7031c0.13672-0.015625 0.23438-0.14062 0.21875-0.27734-1.2969-10.809-2.8242-18.77-4.8125-25.055-0.039062-0.13281-0.17969-0.20312-0.3125-0.16406-0.13281 0.042969-0.20312 0.17969-0.16406 0.3125 1.9766 6.2539 3.5 14.188 4.793 24.961 0.015625 0.12891 0.125 0.21875 0.24609 0.21875 0.011719 0.007812 0.023438 0.007812 0.03125 0.003906zm-1.125 0.70312c0.13672 0 0.25-0.11719 0.24609-0.25391-0.058594-3.6758-3.6719-10.43-8.0352-18.223-0.066407-0.12109-0.21875-0.16406-0.33984-0.09375-0.12109 0.066406-0.16406 0.21875-0.097656 0.33984 4.3281 7.7344 7.9141 14.43 7.9688 17.988 0 0.13672 0.11328 0.24609 0.25 0.24609l0.007812-0.003906z"/>
<text x="0.0" y="117.5" font-size="5.0" font-weight="bold" font-family="Arbeit Regular, Helvetica, Arial-Unicode, Arial, Sans-serif" fill="#000000">Created by Kael</text><text x="0.0" y="122.5" font-size="5.0" font-weight="bold" font-family="Arbeit Regular, Helvetica, Arial-Unicode, Arial, Sans-serif" fill="#000000">from Noun Project</text></svg>