<svg xmlns:x="http://ns.adobe.com/Extensibility/1.0/" xmlns:i="http://ns.adobe.com/AdobeIllustrator/10.0/" xmlns:graph="http://ns.adobe.com/Graphs/1.0/" xmlns="http://www.w3.org/2000/svg" xmlns:xlink="http://www.w3.org/1999/xlink" version="1.1" x="0px" y="0px" viewBox="0 0 100 125" style="enable-background:new 0 0 100 100;" xml:space="preserve"><metadata><sfw xmlns="http://ns.adobe.com/SaveForWeb/1.0/"><slices/><sliceSourceBounds bottomLeftOrigin="true" height="69.2" width="87.5" x="-43.6" y="-35.5"/></sfw></metadata><g><path d="M50.7,46.4c0,0-1.9-1.2-3.4-1.9c-1.4-0.6-3.7-1.1-6-0.1c-2.7,1.2-4.2,2.4-3.9,4.4c0.8-0.8,2.3-1,3.8,0.1   c1.2,0.9,3.1,2.4,1.4,4c-0.8,0.8-9.9,5.6-13,6.4c-2.4,0.6-3.5,2-4.5,2.8c-1,0.8-10.8,7.2-12.8,8.4c-2,1.2-4.6,3.3-5.3,4   s-0.7,1.7,0.6,1c0.9-0.5,4.2-2.4,4.7-2.6c0.5-0.2,1,0.4,0.1,1.1c-0.8,0.7-3.9,3-5,3.9c-1.8,1.3-1,2.5,0.4,1.5   c1-0.7,4.1-2.7,4.8-3.2c0.9-0.7,1.5,0.2,0.5,1.1c-1.4,1.3-4.6,4.7-5.6,5.8c-1.1,1.2-0.2,2.6,1.1,1.1c2.3-2.5,4.6-4.7,4.9-5   c0.4-0.4,1.6-0.2,0.5,1c-1.6,1.9-2.9,4-3.1,4.4c-0.8,1.1,0,1.8,1.3,0.4c1.2-1.3,2.7-3.5,3.4-4.2c0.6-0.6,0.9,0.1,0.6,0.7   c-0.5,0.9-1.1,2-1.2,2.5c-0.2,0.8,0.4,1.4,1.2,0.2c0.8-1.2,1.9-2.2,3.1-2.7C29,77,45.5,73.3,52,64.4c0.7-0.9,1.8-1.8,2.2-0.4   c0.4,1.4,1,11.6,1,11.6s10.7,4.2,15,1.7c3.3-1.9,4.3-10,4.5-11.4s-10.4-5.6-11.2-6.6s-2.1-1.9-0.6-2.5   c15.6-6.2,18.7-20.3,24.1-25.3c0.9-0.9,5.1-2.6,5.8-2.9c1.2-0.5,1.6-1.9-0.1-1.6c-0.7,0.1-3,1.3-4,1.5c-0.9,0.3-0.5-0.6-0.2-0.8   c0.9-0.7,3.7-2.8,4.9-3.9s0.2-2.2-0.9-1.3c-0.5,0.4-3.2,2.5-4.3,3.5c-0.9,0.8-1.1-0.3-0.9-0.7c0.8-1.2,4.3-4.9,5.1-5.4   c1.6-1.1,1.5-3.2-1-1.3c-1.5,1.2-4.2,4-5.5,5.2c-1.2,1.2-2,0.5-1.3-0.7c0.8-1.4,4.2-4.1,5-5.1c0.8-1,0.6-2.6-1.5-0.9   c-0.8,0.6-4.4,4.3-5.3,5.2c-0.9,0.9-1.8,0.5-1.2-0.5c0.6-1.1,2.1-2.6,3.3-4.1c1.2-1.4-0.4-1.6-1.4-0.8c-1,0.8-4.5,4.4-6.1,5.7   c-0.9,0.7-6.8,6.3-8.5,7.4c-0.7,0.4-1.8,1-2.5,2c-1,1.4-13.6,14.4-14.2,14.6C51.2,46.7,50.7,46.4,50.7,46.4z"/></g><text x="0" y="115" fill="#000000" font-size="5px" font-weight="bold" font-family="'Helvetica Neue', Helvetica, Arial-Unicode, Arial, Sans-serif">Created by Hayashi Fumihiro</text><text x="0" y="120" fill="#000000" font-size="5px" font-weight="bold" font-family="'Helvetica Neue', Helvetica, Arial-Unicode, Arial, Sans-serif">from the Noun Project</text></svg>